<?xml version="1.0" encoding="UTF-8"?>
<svg width="160px" height="35px" viewBox="0 0 160 35" version="1.1" xmlns="http://www.w3.org/2000/svg" xmlns:xlink="http://www.w3.org/1999/xlink">
    <title>logo on the side1</title>
    <g id="Page-1" stroke="none" stroke-width="1" fill="none" fill-rule="evenodd">
        <g id="aeda-home-01" transform="translate(-42.000000, -19.000000)">
            <g id="logo-on-the-side1" transform="translate(42.000000, 19.916426)">
                <path d="M9.52845784,30.5001378 C7.83122097,30.6209242 6.04329686,30.2535582 4.34857908,29.3811422 C5.07785562,30.2066205 5.88270487,30.9638825 6.75179092,31.6429151 C13.6326852,37.0138432 20.3026057,26.7945603 24.154924,22.5476344 C27.4070692,18.972231 28.6017476,23.4876407 31.6416595,24.1647957 C33.5429426,24.588487 34.9498544,23.1740967 35.4410769,20.3985122 C34.4705975,22.1796426 33.469889,22.4562623 32.4792569,21.9812525 C30.8632606,21.206467 29.2743446,18.4333858 27.8901047,16.9238684 C25.4906715,14.725305 23.6341022,16.2661143 22.0395182,18.7243997 C19.1129654,22.9300205 15.3532236,30.0870857 9.52845784,30.5001378 Z M26.8245296,22.5789262 C28.0450287,22.5789262 29.0344013,23.6115563 29.0344013,24.8851334 C29.0344013,26.1580847 28.0450287,27.1907148 26.8245296,27.1907148 C25.6052901,27.1907148 24.6152877,26.1580847 24.6152877,24.8851334 C24.6152877,23.6115563 25.6052901,22.5789262 26.8245296,22.5789262 L26.8245296,22.5789262 Z" id="Fill-1" fill="#48BACB"></path>
                <path d="M28.6766905,6.84164371 C31.4659529,9.6134732 33.1915296,13.4417146 33.1915296,17.6698654 C33.1915296,18.4146107 33.1373691,19.148091 33.0340864,19.8652995 C32.9320633,20.571243 32.7462804,21.3422735 32.5510509,22.0144218 C33.8672754,22.6552783 34.939778,21.4530465 35.4410769,20.3985122 C35.5726994,19.5417421 35.5622028,18.539778 35.5622028,17.6698654 C35.5622028,12.7914705 33.5712824,8.37431709 30.3531449,5.176293 C27.1350075,1.97826891 22.6900732,0 17.7809966,0 C12.8712902,0 8.42635598,1.97826891 5.20821853,5.176293 C1.99008108,8.37431709 0,12.7914705 0,17.6698654 C0,20.437314 0.640478627,23.0570653 1.78225616,25.3889317 C2.51531134,26.8859325 3.2603322,28.180788 4.36936157,29.404924 C5.94316303,30.2003621 7.79280485,30.6152917 9.37983154,30.5095253 C7.45902543,29.2653625 5.83358262,27.606896 4.63386602,25.6624223 C3.19798473,23.3355625 2.37046367,20.598154 2.37046367,17.6698654 C2.37046367,13.4417146 4.09541053,9.6134732 6.88467291,6.84164371 C9.67330552,4.07044005 13.5262536,2.35627411 17.7809966,2.35627411 C22.0357396,2.35627411 25.8880579,4.07044005 28.6766905,6.84164371" id="Fill-2" fill="#FFFFFF"></path>
                <path d="M125.137054,16.6610171 C125.137054,17.4545777 125.002283,18.1830512 124.73337,18.8470637 C124.465087,19.5104503 124.089113,20.0824648 123.605448,20.5631071 C123.121782,21.0443753 122.534205,21.4179997 121.843344,21.684606 C121.152484,21.9518381 120.384791,22.0851413 119.540266,22.0851413 L116.361804,22.0851413 L116.361804,11.1912068 L119.540266,11.1912068 C120.384791,11.1912068 121.152484,11.328265 121.843344,11.6030072 C122.534205,11.8777494 123.121782,12.2588837 123.605448,12.747662 C124.089113,13.2358144 124.465087,13.8115839 124.73337,14.4755963 C125.002283,15.1389829 125.137054,15.8680823 125.137054,16.6610171 Z M128.107691,16.615331 C128.107691,15.4863221 127.900496,14.4336653 127.486106,13.4567346 C127.071715,12.4804298 126.484138,11.6336731 125.724002,10.9164646 C124.963867,10.1992561 124.058254,9.63850665 123.006534,9.23421633 C121.954814,8.829926 120.799181,8.62778084 119.540266,8.62778084 L113.529088,8.62778084 L113.529088,24.6491931 L119.540266,24.6491931 C120.799181,24.6491931 121.954814,24.4426671 123.006534,24.0308667 C124.058254,23.6190664 124.963867,23.0545619 125.724002,22.3373534 C126.484138,21.6201448 127.071715,20.7696332 127.486106,19.7851925 C127.900496,18.8007518 128.107691,17.7443399 128.107691,16.615331 Z M95.9162403,8.62778084 L83.9631583,8.62778084 L83.9631583,24.6491931 L96.0314886,24.6491931 L96.0314886,22.1314532 L86.7965048,22.1314532 L86.7965048,17.828202 L94.8802645,17.828202 L94.8802645,15.3104621 L86.7965048,15.3104621 L86.7965048,11.1455207 L95.9162403,11.1455207 L95.9162403,8.62778084 Z M59.9707156,8.51325277 L57.345194,8.51325277 L50.2514367,24.6491931 L53.1534283,24.6491931 C56.1561836,17.6454578 55.3154373,19.5210895 58.6116665,11.8777494 C61.851846,19.3270802 61.1899551,17.8350862 64.0705345,24.6491931 L67.064473,24.6491931 L59.9707156,8.51325277 Z M58.6582697,18.1655278 C59.4184051,18.1655278 60.0349524,18.7775958 60.0349524,19.5336062 C60.0349524,20.2889908 59.4184051,20.9016846 58.6582697,20.9016846 C57.8975045,20.9016846 57.2809573,20.2889908 57.2809573,19.5336062 C57.2809573,18.7775958 57.8975045,18.1655278 58.6582697,18.1655278 Z M152.906243,8.51325277 L150.280721,8.51325277 L143.186964,24.6491931 L146.088955,24.6491931 C149.091711,17.6454578 148.250964,19.5210895 151.547194,11.8777494 C154.787373,19.3270802 154.125482,17.8350862 157.006062,24.6491931 L160,24.6491931 L152.906243,8.51325277 Z M151.593797,18.1655278 C152.353932,18.1655278 152.971109,18.7775958 152.971109,19.5336062 C152.971109,20.2889908 152.353932,20.9016846 151.593797,20.9016846 C150.833032,20.9016846 150.216484,20.2889908 150.216484,19.5336062 C150.216484,18.7775958 150.833032,18.1655278 151.593797,18.1655278 L151.593797,18.1655278 Z" id="Fill-3" fill="#FFFFFF"></path>
            </g>
        </g>
    </g>
</svg>