<svg width="32" height="32" xmlns="http://www.w3.org/2000/svg" xmlns:xlink="http://www.w3.org/1999/xlink">
  <defs>
    <path d="M9 0a9 9 0 11.001 18.001A9 9 0 019 0zm0 1C4.59 1 1 4.59 1 9s3.59 8 8 8 8-3.59 8-8-3.59-8-8-8zm.01 1c.56 0 1.01.47 1.01 1.04v5.38l3.69 3.8c.39.41.39 1.06 0 1.47-.4.41-1.04.41-1.43 0L8 9.28V3.04C8 2.47 8.45 2 9.01 2z" id="a"/>
  </defs>
  <g fill="none" fill-rule="evenodd">
    <circle stroke="#FFF" fill="#0056A0" cx="16" cy="16" r="15.5"/>
    <g transform="translate(7 7)">
      <mask id="b" fill="#fff">
        <use xlink:href="#a"/>
      </mask>
      <use fill="#000" fill-rule="nonzero" xlink:href="#a"/>
      <g mask="url(#b)" fill="#FFF">
        <path d="M0 0h18v18H0z"/>
      </g>
    </g>
  </g>
</svg>
