<svg width="32" height="32" xmlns="http://www.w3.org/2000/svg" xmlns:xlink="http://www.w3.org/1999/xlink">
  <defs>
    <path d="M18 3.164V8h-.91a6.605 6.605 0 00-6.605 6.604H12.5L9 18l-3.5-3.396h2.016A6.605 6.605 0 00.91 8H0V3.164a4.95 4.95 0 003 1.025 4.957 4.957 0 003-1.017 4.962 4.962 0 003 1.017 4.957 4.957 0 003-1.017 4.962 4.962 0 003 1.017c1.13 0 2.162-.39 3-1.025zm-6 1.208c-.91.53-1.952.817-3 .817a5.99 5.99 0 01-3-.817c-.91.53-1.952.817-3 .817-.687 0-1.36-.119-2-.351v2.163c4.152.048 7.516 3.44 7.516 7.603v1h-.549L9 16.606l1.033-1.002h-.548v-1c0-4.163 3.363-7.555 7.515-7.603V4.838a5.844 5.844 0 01-2 .351 5.99 5.99 0 01-3-.817zM18 0v1.354a4.955 4.955 0 01-3 1.026 4.955 4.955 0 01-3-1.019A4.953 4.953 0 019 2.38a4.955 4.955 0 01-3-1.019A4.953 4.953 0 013 2.38a4.955 4.955 0 01-3-1.026V0a3.974 3.974 0 003 1.38A3.972 3.972 0 006 0a3.974 3.974 0 003 1.38A3.972 3.972 0 0012 0a3.974 3.974 0 003 1.38A3.972 3.972 0 0018 0z" id="a"/>
  </defs>
  <g fill="none" fill-rule="evenodd">
    <circle stroke="#FFF" fill="#0056A0" cx="16" cy="16" r="15.5"/>
    <g transform="translate(7 8)">
      <mask id="b" fill="#fff">
        <use xlink:href="#a"/>
      </mask>
      <use fill="#000" xlink:href="#a"/>
      <g mask="url(#b)" fill="#FFF">
        <path d="M0 0h18v18H0z"/>
      </g>
    </g>
  </g>
</svg>
