<svg width="32" height="32" xmlns="http://www.w3.org/2000/svg" xmlns:xlink="http://www.w3.org/1999/xlink">
  <defs>
    <path d="M8.5 2c-.37.45-.9.75-1.5.75S5.87 2.45 5.5 2c-.37.45-.9.75-1.5.75S2.87 2.45 2.5 2c-.37.45-.9.75-1.5.75-.37 0-.7-.11-1-.3V5.7c.3.19.63.3 1 .3.6 0 1.13-.29 1.5-.75.37.46.9.75 1.5.75s1.13-.29 1.5-.75c.37.46.9.75 1.5.75s1.13-.29 1.5-.75c.37.46.9.75 1.5.75.37 0 .7-.11 1-.3V2.45c-.3.19-.63.3-1 .3-.6 0-1.13-.3-1.5-.75zm0 5.34c-.37.46-.9.75-1.5.75s-1.13-.29-1.5-.75c-.37.46-.9.75-1.5.75s-1.13-.29-1.5-.75c-.37.46-.9.75-1.5.75-.37 0-.7-.11-1-.3v3.25c.3.19.63.3 1 .3.6 0 1.13-.29 1.5-.75.37.45.9.75 1.5.75s1.13-.29 1.5-.75c.37.45.9.75 1.5.75s1.13-.29 1.5-.75c.37.45.9.75 1.5.75.37 0 .7-.11 1-.3V7.79c-.3.19-.63.3-1 .3-.6 0-1.13-.29-1.5-.75zm0 5.66c-.37.45-.9.74-1.5.74s-1.13-.29-1.5-.74c-.37.45-.9.74-1.5.74s-1.13-.29-1.5-.74c-.37.45-.9.74-1.5.74-.37 0-.7-.11-1-.3V18h11v-4.56c-.3.18-.63.3-1 .3-.6 0-1.13-.29-1.5-.74zM16 0h-4v18h6L16 0z" id="a"/>
  </defs>
  <g fill="none" fill-rule="evenodd">
    <circle stroke="#FFF" fill="#0056A0" cx="16" cy="16" r="15.5"/>
    <g transform="translate(7 7)">
      <mask id="b" fill="#fff">
        <use xlink:href="#a"/>
      </mask>
      <use fill="#000" fill-rule="nonzero" xlink:href="#a"/>
      <g mask="url(#b)" fill="#FFF">
        <path d="M0 0h18v18H0z"/>
      </g>
    </g>
  </g>
</svg>
