<?xml version="1.0" encoding="UTF-8"?>
<svg width="40px" height="40px" viewBox="0 0 40 40" version="1.1" xmlns="http://www.w3.org/2000/svg" xmlns:xlink="http://www.w3.org/1999/xlink">
    <!-- Generator: Sketch 60 (88103) - https://sketch.com -->
    <title>Generating Station</title>
    <desc>Created with Sketch.</desc>
    <defs>
        <path d="M7.72183908,12.9172414 C8.7816092,14.0942529 10.4896552,14.1011494 11.5655172,12.9471264 L11.5655172,12.9471264 L11.5724138,18.0252874 L0,18.0252874 L0,12.9563218 C1.07356322,14.1126437 2.7816092,14.1011494 3.84137931,12.9218391 C4.91264368,14.1126437 6.64827586,14.1126437 7.72183908,12.9172414 Z M15.4275862,0.0206896552 L18,18.0206897 L12.8574713,18.0206897 L12.8574713,0.0206896552 L15.4275862,0.0206896552 Z M7.72413793,7.73103448 C8.78390805,8.91034483 10.491954,8.91724138 11.5678161,7.76091954 L11.5724138,11.6275862 C10.4965517,12.7816092 8.78850575,12.7747126 7.72873563,11.5977011 C6.65747126,12.7931034 4.91954023,12.7931034 3.84827586,11.6022989 C2.78850575,12.7816092 1.07816092,12.7931034 0.00459770115,11.6367816 L0,7.77011494 C1.07356322,8.92413793 2.7816092,8.91494253 3.84367816,7.73563218 C4.91494253,8.92643678 6.65057471,8.92643678 7.72413793,7.73103448 Z M7.72413793,2.58390805 C8.78390805,3.76321839 10.491954,3.77011494 11.5678161,2.6137931 L11.5724138,6.48045977 C10.4965517,7.63448276 8.78850575,7.62758621 7.72873563,6.45057471 C6.65747126,7.64597701 4.91954023,7.64597701 3.84827586,6.45517241 C2.78850575,7.63448276 1.07816092,7.64597701 0.00459770115,6.48965517 L0,2.62298851 C1.07356322,3.77701149 2.7816092,3.76781609 3.84367816,2.58850575 C4.91494253,3.77931034 6.65057471,3.77931034 7.72413793,2.58390805 Z" id="path-1"></path>
    </defs>
    <g id="Generating-Station" stroke="none" stroke-width="1" fill="none" fill-rule="evenodd">
        <g id="Group-3-Copy-4" transform="translate(4.000000, 4.000000)">
            <circle id="Oval" stroke="#FFFFFF" fill="#3F86CD" cx="16" cy="16" r="15.5"></circle>
            <g id="Icons/ki_dam" transform="translate(7.000000, 7.000000)">
                <mask id="mask-2" fill="white">
                    <use xlink:href="#path-1"></use>
                </mask>
                <use id="Mask" fill="#1D1D1B" fill-rule="nonzero" xlink:href="#path-1"></use>
                <g id="Colors/White" mask="url(#mask-2)" fill="#FFFFFF" fill-rule="evenodd">
                    <rect id="Rectangle-Copy-6" x="0" y="0" width="18" height="18"></rect>
                </g>
            </g>
        </g>
    </g>
</svg>