<svg width="32" height="32" xmlns="http://www.w3.org/2000/svg" xmlns:xlink="http://www.w3.org/1999/xlink">
  <defs>
    <path d="M12 14.62c-.73.84-1.8 1.38-3 1.38s-2.27-.54-3-1.38C5.27 15.46 4.2 16 3 16s-2.27-.54-3-1.38v1.35C.84 16.61 1.87 17 3 17c1.09 0 2.14-.36 3-1.02a4.92 4.92 0 006 0A4.92 4.92 0 0015 17c1.13 0 2.16-.39 3-1.03v-1.35c-.73.84-1.8 1.38-3 1.38s-2.27-.54-3-1.38zM15 12c-1.2 0-2.27-.54-3-1.38-.73.84-1.8 1.38-3 1.38s-2.27-.54-3-1.38C5.27 11.46 4.2 12 3 12s-2.27-.54-3-1.38v1.35C.84 12.61 1.87 13 3 13c1.09 0 2.14-.36 3-1.02a4.92 4.92 0 006 0A4.92 4.92 0 0015 13c1.13 0 2.16-.39 3-1.03v-1.35c-.73.84-1.8 1.38-3 1.38zM4.12 8.04l.71.7.71-.7 2.12-2.12-.71-.71-1.62 1.62V1h-1v5.83L2.71 5.21 2 5.92l2.12 2.12zm6.93-3.5l1.62-1.63v5.83h1V2.91l1.62 1.63.71-.71-2.12-2.12-.71-.71-.71.71-2.12 2.12.71.71z" id="a"/>
  </defs>
  <g fill="none" fill-rule="evenodd">
    <circle stroke="#FFF" fill="#0056A0" cx="16" cy="16" r="15.5"/>
    <g transform="translate(7 7)">
      <mask id="b" fill="#fff">
        <use xlink:href="#a"/>
      </mask>
      <use fill="#000" fill-rule="nonzero" xlink:href="#a"/>
      <g mask="url(#b)" fill="#FFF">
        <path d="M0 0h18v18H0z"/>
      </g>
    </g>
  </g>
</svg>
