<svg width="32" height="32" xmlns="http://www.w3.org/2000/svg">
    <g fill="none" fill-rule="evenodd">
        <circle stroke="#FFF" fill="#0056A0" cx="16" cy="16" r="15.5"/>
        <path d="m 22.041,16.388 c -14.694,-10.9253333 -7.347,-5.462667 0,0 z M 25,8 h -9 c -4.418278,0 -8,3.581722 -8,8 0,0.692 0.098,1.36 0.262,2 H 7 v 6 h 9 c 4.418278,0 8,-3.581722 8,-8 0,-0.692 -0.096,-1.36 -0.261,-2 H 25 Z"
              fill="#ffffff" id="path26"/>
        <path d="m 16.947206,17.168242 c 0.297398,-0.255307 0.483271,-0.628448 0.483271,-1.060507 0,-0.07856 -0.01859,-0.137473 -0.03718,-0.19639 C 18.843112,14.379502 19.214859,11.963902 18.136792,10 l -1.152417,0.707004 c 0.743495,1.355093 0.520447,2.985132 -0.427509,4.084917 -0.148698,-0.05892 -0.297397,-0.0982 -0.464684,-0.0982 -0.315985,0 -0.576208,0.137473 -0.817844,0.314225 -1.951673,-0.530255 -4.107807,0.314224 -5.167286,2.278126 l 1.152417,0.707005 c 0.743494,-1.355093 2.211895,-1.963903 3.58736,-1.649678 0.07435,0.490975 0.371747,0.883756 0.799257,1.060506 0.539033,2.081737 2.32342,3.613581 4.460966,3.613581 V 19.62312 C 18.620066,19.60348 17.3933,18.582252 16.947203,17.168242 Z"
              id="path107" style="fill:#0257a1;stroke-width:0.19106"/>
    </g>
</svg>
