<svg width="32" height="32" xmlns="http://www.w3.org/2000/svg">
    <g fill="none" fill-rule="evenodd">
        <circle stroke="#FFF" fill="#0056A0" cx="16" cy="16" r="15.5"/>
        <path d="M22 11.104v3.888c-.023.001-.045.008-.068.008-.808 0-1.518-.35-1.97-.884-.451.534-1.161.884-1.969.884-.813 0-1.529-.356-1.98-.897-.452.541-1.168.897-1.982.897-.814 0-1.53-.356-1.981-.897-.451.541-1.167.897-1.982.897-.023 0-.045-.007-.068-.008V8.947A19.413 19.413 0 0116 8c2.092 0 4.106.333 6 .947v2.157zM16 7c-2.44 0-4.791.375-7 1.066v15.868A23.41 23.41 0 0016 25c2.44 0 4.791-.375 7-1.066V8.066A23.41 23.41 0 0016 7z"
              fill="#FFF"/>
        <rect style="fill:#0056a0;fill-opacity:1;stroke-width:0.264583"
              id="rect116" width="20" height="5" x="6" y="5"/>
    </g>
</svg>
