<?xml version="1.0" encoding="utf-8"?>
<!-- Generator: Adobe Illustrator 22.0.0, SVG Export Plug-In . SVG Version: 6.00 Build 0)  -->
<svg version="1.1" id="Layer_1" xmlns="http://www.w3.org/2000/svg" xmlns:xlink="http://www.w3.org/1999/xlink" x="0px"
     y="0px"
     viewBox="0 0 100 100" style="enable-background:new 0 0 100 100;" xml:space="preserve">
<style type="text/css">
	.st0{fill:#1D1D1B;}
	.st1{fill:#6295C1;}
	.st2{fill:#0257A1;}
	.st3{fill:none;}
</style>
    <g>
	<path class="st1" d="M92.9,12.4V9.8C79.9,3.6,65.4,0,50,0S20.1,3.6,7.1,9.8v12h0v35.4h0v30.4h0v2.7c13,6.2,27.5,9.8,42.9,9.8
		s29.9-3.6,42.9-9.8v-4.5v-7.4L92.9,12.4L92.9,12.4z M17.9,16.8c10-3.9,20.8-6.1,32.1-6.1c11.3,0,22.2,2.2,32.1,6.1V43
		c-6,5.8-15.5,5.7-21.4-0.2c-6,6-15.6,6-21.6,0c-5.9,5.9-15.4,5.9-21.4,0.2V16.8z"/>
        <path class="st2" d="M50,10.7c11,0,21.8,2,32.1,6.1v61.5v4.9c-10.3,4-21.1,6.1-32.1,6.1c-11,0-21.8-2-32.1-6.1l0-26.1l0-35.4v-4.9
		C28.2,12.8,39,10.7,50,10.7 M50,0C34.6,0,20.1,3.6,7.1,9.8v12h0v35.4h0v30.4h0v2.7c13,6.2,27.5,9.8,42.9,9.8s29.9-3.6,42.9-9.8
		v-4.5v-7.4V12.4h0V9.8C79.9,3.6,65.4,0,50,0L50,0z"/>
</g>
</svg>
