<svg width="32" height="32" xmlns="http://www.w3.org/2000/svg">
  <g fill="none" fill-rule="evenodd">
    <circle stroke="#FFF" fill="#0056A0" cx="16" cy="16" r="15.5"/>
    <path d="M17.5 16a1.5 1.5 0 01-1.189 1.467c.01.83.21 1.65.635 2.389a4.868 4.868 0 002.976 2.284l-.258.966a5.884 5.884 0 01-4.368-5.79A1.493 1.493 0 0114.5 16c0-.162.032-.315.08-.461a4.854 4.854 0 00-2.393-.647c-1.31 0-2.54.509-3.466 1.435l-.707-.707a5.884 5.884 0 014.173-1.728c1.044 0 2.081.295 3.007.846A1.488 1.488 0 0117.11 15a4.863 4.863 0 001.756-1.748 4.866 4.866 0 00.49-3.72l.965-.258a5.882 5.882 0 01-.589 4.478 5.893 5.893 0 01-2.239 2.183c.001.022.007.043.007.065M16 7a9 9 0 00-9 9 9 9 0 009 9 9 9 0 009-9 9 9 0 00-9-9" fill="#FFF"/>
  </g>
</svg>
