<?xml version="1.0" encoding="UTF-8" standalone="no"?>
<svg version="1.1" viewBox="-103 -103 206 206"
     xmlns="http://www.w3.org/2000/svg"
     xmlns:xlink="http://www.w3.org/1999/xlink">
    <title>Blue round icon with questionmark</title>
    <defs>
        <path id="qst"
              d="m 1.1043289,-74.134764 c -6.837244,0 -13.4751139,2.056843 -19.9140669,6.007813 -6.438955,4.033281 -11.616777,9.46499 -15.666015,16.296875 -5.443239,9.218936 -8.164063,21.153177 -8.164063,35.804688 h 33.5214839 c 0,-10.947478 3.187975,-16.378907 9.56055096,-16.378907 2.32333004,0 4.31311004,0.989079 5.90625004,3.046875 1.65952,1.975485 2.45703,4.4433 2.45703,7.324219 0,4.938708 -2.52339,8.809101 -7.50196,11.525391 l -6.570308,3.621093 c -4.8458099,2.716291 -8.1647449,6.41927601 -9.9570309,11.19336 -1.792286,4.774091 -2.722657,12.182571 -2.722657,22.224611 v 7.57422 h 36.044926 c 0,-5.76183 0.46516,-9.55047 1.32812,-11.36133 0.79656,-1.72854 3.18507,-3.7865 7.03516,-6.25586 11.94858,-7.32575 17.92383,-20.166218 17.92383,-38.439454 0,-14.733824 -4.18285,-27.163026 -12.48047,-37.205078 -8.364,-9.959736 -18.58668,-14.978515 -30.8007801,-14.978516 z M 0.73713886,38.410154 c -4.92780196,0 -9.08564696,1.7458 -12.57617386,5.23633 -3.439196,3.49052 -5.185547,7.74939 -5.185547,12.72852 0,5.18447 1.695268,9.44666 4.980469,12.7832 3.3365339,3.33652 7.5967899,4.97656 12.78125186,4.97656 4.97914004,0 9.18720004,-1.69167 12.67773014,-5.13086 3.54186,-3.4392 5.28711,-7.59759 5.28711,-12.52539 0,-4.92781 -1.74525,-9.18862 -5.28711,-12.73047 -3.5418601,-3.54186 -7.7499301,-5.33789 -12.67773014,-5.33789 z"/>
    </defs>
    <g transform="rotate(240)">
        <circle r="100" fill="#0056A0" stroke-width="2"/>
        <circle r="100" fill="#0056A0"/>
    </g>
    <use xlink:href="#qst" fill="#eaffff" stroke="none"/>
</svg>
