<svg width="32" height="32" xmlns="http://www.w3.org/2000/svg">
  <g fill="none" fill-rule="evenodd">
    <circle stroke="#FFF" fill="#0056A0" cx="16" cy="16" r="15.5"/>
    <path d="M20.493 22.05a3.825 3.825 0 002.747 1.13c.645 0 1.237-.166 1.76-.43v.913a4.955 4.955 0 01-1.76.336 4.896 4.896 0 01-2.747-.834 4.895 4.895 0 01-2.746.834c-1.034 0-1.98-.32-2.747-.84V22.05a3.825 3.825 0 002.747 1.13 3.824 3.824 0 002.746-1.13zm2.504-2.922l.014.01v1.113c-.004-.003-.01-.005-.014-.01a4.896 4.896 0 01-2.747.835 4.895 4.895 0 01-2.746-.834 4.895 4.895 0 01-2.746.834c-1.035 0-1.98-.32-2.747-.84v-1.108a3.833 3.833 0 002.747 1.13 3.832 3.832 0 002.746-1.13 3.83 3.83 0 002.746 1.13 3.833 3.833 0 002.747-1.13zM8.202 8c2.642 0 4.783 2.087 4.783 4.661v3.24h.011v2.317h-1v-2.317h.011v-3.24c0-2.048-1.703-3.708-3.805-3.708H7V8zm6 3.463c2.104 0 3.809 1.661 3.809 3.711v2.741h-1v-2.742c0-1.51-1.257-2.735-2.808-2.735h-.414v-.975zm-3.202 0v.975H7v-.975h4z" fill="#FFF"/>
  </g>
</svg>
