<svg width="32" height="32" xmlns="http://www.w3.org/2000/svg">
  <g fill="none" fill-rule="evenodd">
    <circle stroke="#FFF" fill="#0056A0" cx="16" cy="16" r="15.5"/>
    <path d="M8.546 17.956a1.61 1.61 0 001.02-.661c.29.41.747.696 1.288.696.542 0 .997-.285 1.288-.696.29.41.747.696 1.288.696.52 0 .989-.272 1.283-.657l-.001 1.298a1.634 1.634 0 01-1.282.656c-.542 0-.997-.285-1.29-.695-.29.41-.745.695-1.287.695-.541 0-.997-.285-1.288-.695-.16.224-.371.404-.615.528a7.746 7.746 0 01-.404-1.165M16 8.286c4.254 0 7.714 3.46 7.714 7.714 0 1.11-.24 2.165-.664 3.12a1.702 1.702 0 01-.613-.527c-.29.41-.746.695-1.288.695-.541 0-.998-.285-1.29-.695-.29.41-.745.695-1.287.695-.177 0-.345-.043-.505-.103l-.783-7.041h-2.571v1.324a1.635 1.635 0 01-1.283.656c-.541 0-.997-.284-1.288-.695-.291.41-.746.695-1.288.695-.541 0-.997-.284-1.288-.695a1.603 1.603 0 01-1.031.662c.853-3.331 3.87-5.805 7.465-5.805m8.435 10.828l.002-.004c.358-.97.563-2.015.563-3.11a9 9 0 00-9-9c-4.556 0-8.31 3.388-8.908 7.78-.004.03-.01.058-.013.088A9.003 9.003 0 006.999 16a8.952 8.952 0 001.87 5.477 9.02 9.02 0 001.889 1.829c.022.016.043.033.065.048.342.242.702.458 1.077.65.053.029.107.053.16.078.35.172.712.323 1.087.449.035.012.068.026.104.038a8.856 8.856 0 001.473.33c.418.06.842.1 1.276.1.435 0 .859-.04 1.275-.1a9.043 9.043 0 001.473-.33c.035-.01.069-.026.103-.037a8.878 8.878 0 001.084-.447l.164-.078a9.085 9.085 0 001.075-.65l.063-.048a8.968 8.968 0 001.887-1.824l.01-.014a8.92 8.92 0 001.3-2.357" fill="#FFF"/>
  </g>
</svg>
