<?xml version="1.0" encoding="UTF-8"?>
<svg xmlns="http://www.w3.org/2000/svg" id="icons" viewBox="0 0 60 60" width="512" height="512"><path d="M17.158,55.47a.5.5,0,0,1-.266-.923l4.1-2.578L15.043,55.4a.5.5,0,0,1-.514-.857l6.149-3.821L12.572,55.4a.5.5,0,0,1-.517-.855l19.272-12.2L8.712,55.4a.5.5,0,0,1-.515-.857L29.578,41.22,5.012,55.4a.5.5,0,0,1-.514-.857L27.963,39.984,2.392,54.748a.5.5,0,0,1-.51-.859l16.571-10.1L1.508,53.576A.5.5,0,0,1,1,52.717L19.306,41.55,1.28,51.956A.5.5,0,0,1,.769,51.1L24.281,36.631l-23,13.279a.5.5,0,0,1-.508-.86L14.6,40.665,1.279,48.357A.5.5,0,0,1,.767,47.5L24.821,32.683,1.278,46.274a.5.5,0,0,1-.509-.86l14.576-8.843L1.278,44.692a.5.5,0,0,1-.511-.858l22.466-13.8L1.278,42.714a.5.5,0,0,1-.508-.86l11.213-6.778L1.277,41.257A.5.5,0,0,1,.765,40.4L25.352,25.205,1.277,39.1a.5.5,0,0,1-.509-.861l12.288-7.466-11.779,6.8a.5.5,0,0,1-.512-.858L18.676,25.673,1.276,35.718a.5.5,0,0,1-.508-.861l4.2-2.544L1.276,34.444a.5.5,0,0,1-.514-.856L18.3,22.621,1.276,32.447a.5.5,0,0,1-.512-.858l9.3-5.73L1.275,30.932a.5.5,0,0,1-.513-.858l9.717-6.034-9.2,5.314A.5.5,0,0,1,.754,28.5l15.392-9.931L1.274,27.155A.5.5,0,0,1,.757,26.3l8.705-5.507L1.274,25.519a.5.5,0,0,1-.518-.855l7.279-4.633-6.761,3.9a.5.5,0,0,1-.525-.851l9.364-6.171-8.84,5.1a.5.5,0,0,1-.529-.848l8.1-5.454L1.273,20.086a.5.5,0,0,1-.526-.85l4.239-2.817L1.273,18.563a.5.5,0,0,1-.525-.85l1.434-.947-.91.525a.5.5,0,0,1-.556-.828L6.328,12.1,1.272,15.019a.5.5,0,0,1-.559-.826l2.88-2.272-2.321,1.34a.5.5,0,0,1-.614-.775l2.19-2.332-1.577.909a.5.5,0,0,1-.683-.681l.673-1.174a.5.5,0,0,1-.182-.928L2.263,7.6a.5.5,0,0,1,.683.681l-.568.992L5.277,7.6a.5.5,0,0,1,.615.776L3.7,10.7,9.085,7.6a.5.5,0,0,1,.56.825L6.764,10.694l5.367-3.1a.5.5,0,0,1,.556.828L7.075,12.786l8.992-5.192a.5.5,0,0,1,.526.85l-1.429.945,3.107-1.795a.5.5,0,0,1,.527.85l-4.244,2.82,6.356-3.67a.5.5,0,0,1,.529.847l-8.1,5.455,10.918-6.3a.5.5,0,0,1,.525.851l-9.358,6.168,12.157-7.02a.5.5,0,0,1,.519.855l-7.291,4.641,9.518-5.5a.5.5,0,0,1,.518.856l-8.7,5.508L33.159,7.592a.5.5,0,0,1,.522.853L18.3,18.373,36.969,7.591a.5.5,0,0,1,.513.858l-9.718,6.035L39.7,7.59a.5.5,0,0,1,.513.859l-9.288,5.724L42.33,7.59a.5.5,0,0,1,.515.857L25.3,19.422l20.5-11.833a.5.5,0,0,1,.509.861l-4.194,2.54L48,7.589a.5.5,0,0,1,.513.859L30.605,19.49,51.22,7.588a.5.5,0,0,1,.509.861l-12.3,7.476L53.779,7.638a.5.5,0,0,1,.513.858L29.705,23.69,54.721,9.248a.5.5,0,0,1,.508.86l-11.2,6.768,10.689-6.171a.5.5,0,0,1,.511.859l-22.46,13.79,21.95-12.672a.5.5,0,0,1,.509.86L40.653,22.387l14.07-8.123a.5.5,0,0,1,.512.859L31.181,29.939,54.724,16.347a.5.5,0,0,1,.508.861L41.386,25.6l13.339-7.7a.5.5,0,0,1,.511.859L31.724,33.226l23-13.281a.5.5,0,0,1,.51.86l-18.3,11.162L54.727,21.7a.5.5,0,0,1,.509.86l-16.572,10.1,16.064-9.275a.5.5,0,0,1,.513.858L31.77,38.8,54.729,25.544a.5.5,0,0,1,.514.858L33.854,39.732l18.193-10.5a.5.5,0,0,1,.517.856L33.3,42.28,46.779,34.5a.5.5,0,0,1,.514.857l-6.154,3.826,2.269-1.31a.5.5,0,0,1,.517.856l-4.1,2.578.355-.2a.5.5,0,0,1,.534.844l-9.2,6.342,3.5-2.022a.5.5,0,0,1,.531.846l-3.022,2.051a.5.5,0,0,1,.152.833l-4.521,4.135a.5.5,0,0,1-.225.589L26.75,55.4a.5.5,0,0,1-.653-.136.5.5,0,0,1,.065-.665l2.459-2.249L23.337,55.4a.5.5,0,0,1-.531-.846l.841-.572L21.191,55.4a.5.5,0,0,1-.534-.844l9.2-6.344L17.408,55.4A.5.5,0,0,1,17.158,55.47Z" fill="#e1efff"/><path d="M3.965,9.5a.5.5,0,0,1-.314-.89L8.488,4.724,1.28,8.886a.5.5,0,0,1-.536-.843L1.865,7.26,1.28,7.6a.5.5,0,0,1-.561-.825L3.154,4.838,1.28,5.92a.5.5,0,0,1-.593-.8L2.294,3.61l-1,.576a.5.5,0,0,1-.61-.781l.7-.723a.481.481,0,0,1-.208-.2A.5.5,0,0,1,1.362,1.8L3.411.62a.5.5,0,0,1,.61.78L3.9,1.531,5.512.6a.5.5,0,0,1,.592.8L4.5,2.907,8.5.6a.5.5,0,0,1,.562.824L6.624,3.357,11.405.6a.5.5,0,0,1,.536.842l-1.12.783L13.637.6a.5.5,0,0,1,.563.822L9.362,5.305,17.517.6a.5.5,0,0,1,.549.833L14.152,4.359,20.668.6a.5.5,0,0,1,.542.839L18.2,3.608,23.411.6a.5.5,0,0,1,.55.833L20.035,4.37,26.57.6a.5.5,0,0,1,.543.838L23.96,3.719,29.367.6a.5.5,0,0,1,.565.822L25.064,5.347,33.292.6a.5.5,0,0,1,.531.846l-.615.42L35.4.6a.5.5,0,0,1,.561.824L31.255,5.153,39.146.6a.5.5,0,0,1,.548.835L36,4.167,42.185.6a.5.5,0,0,1,.533.845l-1.015.7L44.373.6a.5.5,0,0,1,.547.835L41.286,4.117,47.383.6a.5.5,0,0,1,.531.846L47.4,1.8,49.473.6a.5.5,0,0,1,.56.825l-4.677,3.7L52.835.805a.5.5,0,0,1,.535.843l-1.337.93,1.855-1.071a.5.5,0,0,1,.545.837l-2.084,1.52,2.2-1.271a.5.5,0,0,1,.543.838l-.3.219a.5.5,0,0,1,.528.825l-2.112,2.05,1.525-.881a.5.5,0,0,1,.7.653l-.7,1.422.009-.006a.5.5,0,0,1,.5.867L53.817,9.4a.5.5,0,0,1-.7-.653l.7-1.422-3.6,2.077a.5.5,0,0,1-.6-.792l2.112-2.05L46.806,9.408a.5.5,0,0,1-.543-.839l.254-.183L44.745,9.409a.5.5,0,0,1-.545-.837l2.087-1.523L42.2,9.41a.5.5,0,0,1-.535-.844L43,7.64,39.928,9.412a.5.5,0,0,1-.561-.826l4.678-3.7L36.2,9.414a.5.5,0,0,1-.531-.847l.51-.347L34.11,9.415a.5.5,0,0,1-.547-.835L37.2,5.894,31.1,9.417a.5.5,0,0,1-.534-.846l1.017-.7L28.906,9.418a.5.5,0,0,1-.548-.835l3.695-2.736L25.865,9.419a.5.5,0,0,1-.56-.824l4.706-3.732L22.116,9.421a.5.5,0,0,1-.531-.846l.613-.418L20.006,9.423a.5.5,0,0,1-.565-.822L24.31,4.672,16.077,9.425a.5.5,0,0,1-.543-.838L18.688,6.3,13.277,9.426a.5.5,0,0,1-.549-.833l3.924-2.939L10.115,9.428a.5.5,0,0,1-.542-.839l3.016-2.173L7.369,9.43a.5.5,0,0,1-.55-.834l3.913-2.928L4.215,9.432A.5.5,0,0,1,3.965,9.5Z" fill="#3778c6"/><path d="M21.022,29.96a.5.5,0,0,1-.336-.869l2.446-2.233-3.091,1.784A.5.5,0,0,1,19.5,27.8l1.042-.738-1.062.614a.5.5,0,0,1-.542-.839l1.5-1.081-1.109.64a.5.5,0,0,1-.557-.827l2.742-2.132-.4.231a.5.5,0,0,1-.566-.819l2.776-2.275a.5.5,0,0,1,.19-.671l2.17-1.253a.5.5,0,0,1,.566.82l-.323.265,1.388-.8a.5.5,0,0,1,.557.828l-2.74,2.131,3.419-1.975a.5.5,0,0,1,.542.839l-1.5,1.082,1.844-1.065a.5.5,0,0,1,.539.842l-2.9,2.051a.489.489,0,0,1,.2.16.5.5,0,0,1-.066.665l-4.456,4.067a.5.5,0,0,1-.219.607l-1.26.727A.5.5,0,0,1,21.022,29.96Z" fill="#7f283d"/><path d="M39.57,59.453a.5.5,0,0,1-.273-.919l2.178-1.421L37.634,59.33a.5.5,0,0,1-.523-.851l4.658-3.03-6.239,3.6A.5.5,0,0,1,35,58.2L45,51.563,33.1,58.43a.5.5,0,0,1-.528-.849l12.873-8.56L30.754,57.5a.5.5,0,0,1-.523-.852l12.675-8.245L28.889,56.5a.5.5,0,0,1-.515-.857l5-3.115-5.609,3.239a.5.5,0,0,1-.516-.857l8.4-5.276-9.064,5.233a.5.5,0,0,1-.522-.852l15.088-9.744L25.109,53.532a.5.5,0,0,1-.515-.856l9.852-6.18L24.121,52.457A.5.5,0,0,1,23.6,51.6l11.13-7-11.56,6.673a.5.5,0,0,1-.513-.857l5.731-3.544-5.907,3.409a.5.5,0,0,1-.512-.858l5.344-3.3-5.449,3.146a.5.5,0,0,1-.515-.857l10.058-6.3L21.213,48a.5.5,0,0,1-.522-.853L37.208,36.476,20.44,46.156a.5.5,0,0,1-.515-.856l9.462-5.925-9.374,5.411a.5.5,0,0,1-.521-.852l14.73-9.486L19.58,42.9a.5.5,0,0,1-.523-.851l15.248-9.937L19.327,40.761a.5.5,0,0,1-.522-.852l13.446-8.748L19.3,38.637a.5.5,0,0,1-.521-.854L28.79,31.346l-9.321,5.381a.5.5,0,0,1-.521-.854l8.125-5.229-7.261,4.191a.5.5,0,0,1-.524-.851l8.616-5.67L20.482,32.6a.5.5,0,0,1-.52-.853l2.982-1.921-1.708.986a.5.5,0,0,1-.541-.839l7.383-5.3-4.789,2.765a.5.5,0,0,1-.552-.832l3.52-2.658a.5.5,0,0,1-.075-.9L31.6,19.925a.5.5,0,0,1,.551.832l-2.341,1.768L36.36,18.74a.5.5,0,0,1,.541.84l-7.382,5.3,10.76-6.213a.5.5,0,0,1,.521.853l-2.984,1.922,4.4-2.541a.5.5,0,0,1,.524.851l-8.615,5.67,10.361-5.982a.5.5,0,0,1,.521.854l-8.131,5.233L46.3,20.08a.5.5,0,0,1,.52.854L36.814,27.373l11.224-6.48a.5.5,0,0,1,.523.852L35.119,30.489l14.74-8.51a.5.5,0,0,1,.524.852L35.137,32.766l16.442-9.494a.5.5,0,0,1,.521.853L37.366,33.613,53,24.585a.5.5,0,0,1,.516.857l-9.455,5.92,9.9-5.717a.5.5,0,0,1,.521.853L37.973,37.172l17.214-9.939a.5.5,0,0,1,.515.857L45.646,34.385l10.307-5.951a.5.5,0,0,1,.513.858L51.11,32.6l5.416-3.127a.5.5,0,0,1,.513.859l-5.732,3.545,5.739-3.314a.5.5,0,0,1,.516.856l-11.123,7L57.6,31.973a.5.5,0,0,1,.515.856l-9.86,6.185,9.772-5.642a.5.5,0,0,1,.522.853L43.462,43.969l14.989-8.654a.5.5,0,0,1,.516.857l-8.4,5.277,8.071-4.659a.5.5,0,0,1,.514.857l-4.983,3.105,4.542-2.622a.5.5,0,0,1,.522.851l-12.67,8.244,12.083-6.977a.5.5,0,0,1,.527.849L46.287,49.663l11.988-6.921a.5.5,0,0,1,.527.849l-9.989,6.637L57.6,45.152a.5.5,0,0,1,.523.852l-4.658,3.029,3.33-1.922a.5.5,0,0,1,.523.852l-2.179,1.422.612-.353a.5.5,0,0,1,.542.839L51.918,53.02l1.409-.814a.5.5,0,1,1,.5.865L43.745,58.893a.5.5,0,0,1-.542-.839L47.585,54.9,39.82,59.386A.494.494,0,0,1,39.57,59.453Z" fill="#a53c50"/><path d="M.551,49.914c0,4.712,1.976,5.685,6.473,5.685q9.972,0,19.945,0C45.517,69.343,69.036,45.22,55.449,26.9,54.205-.193,62.078-.843,36.845.4H14.738C11.46.4,5.9-.754,2.742.651-.473,2.083.551,7.294.551,10.034Zm38.525,8.525c-26.416-1.1-25.494-39.508,1.143-38.789C64.8,21.856,63.889,57.821,39.076,58.439ZM20.2,24.509a21.371,21.371,0,0,1,2.321-2.331c1.958-2.483,4.062-3.682,6.368-.936a21.221,21.221,0,0,0-7.6,7.692C20.023,27.677,18.944,26.489,20.2,24.509Zm17.506-6.023a20.006,20.006,0,0,0-7.743,2.162c-2.636-3.284-5.447-2.481-7.845.627-4.866-6.02-6.313.758-9.756-1.74a11.653,11.653,0,0,1-.9-.9c-.405-.406-1.388.268-.934.722,4.908,5.467,6.253-3.107,10.755,2.743-3.095,2.383-3.8,5.307-.592,7.907-4.273,7.938-1.967,18.743,4.788,24.39C-9.383,54.318,4.359,60.385,1.03,9.583q26.755.024,53.521.006V25.74A19.958,19.958,0,0,0,37.707,18.486ZM12.232,1.6h36.18c5.385-.961,6.7,1.986,6.166,6.812H1C.265.3,6.458,1.219,12.232,1.6Z" fill="#262626"/><path d="M4.948,5.459c.54-.055,1.461.229,1.642-.479-.067-.706-1.055-.36-1.537-.439C4.366,4.5,4.144,5.488,4.948,5.459Z" fill="#262626"/><path d="M9.944,5.459c.541-.057,1.46.23,1.647-.475.034-.3-.284-.443-.535-.443-.541.057-1.46-.23-1.647.475C9.375,5.319,9.693,5.459,9.944,5.459Z" fill="#262626"/><path d="M14.967,5.6c.539-.041,1.459.229,1.482-.574.056-.837-.864-.6-1.416-.624C14.434,4.411,14.371,5.531,14.967,5.6Z" fill="#262626"/><path d="M45.051,5.589h6c.643,0,.472-1.178-.1-1.178h-6C44.306,4.411,44.477,5.589,45.051,5.589Z" fill="#262626"/><path d="M7.442,14.647c-.407-.375-1.391.208-.884.706.535.419,1.061,1.531,1.835.944C9,15.673,7.751,15.136,7.442,14.647Z" fill="#262626"/><path d="M7.193,19.506c-.576.055-1.425-.219-1.721.447a.384.384,0,0,0,.335.541c.576-.055,1.425.219,1.721-.447A.384.384,0,0,0,7.193,19.506Z" fill="#262626"/><path d="M11.994,13.4c-.666.032-.666,2.184.012,2.2C12.672,15.568,12.672,13.416,11.994,13.4Z" fill="#262626"/><path d="M39.14,22.528c-.617-.016-1.065.925-.28.944a16.029,16.029,0,0,1,12.868,6.851c.332.462,1.366-.121.989-.646A16.908,16.908,0,0,0,39.14,22.528Z" fill="#262626"/><path d="M34.758,23.077c-.433.19-1.54.173-1.3.871a.714.714,0,0,0,.788.281c.425-.229,1.545-.153,1.3-.871A.719.719,0,0,0,34.758,23.077Z" fill="#262626"/></svg>
