<svg id="Icons" height="512" viewBox="0 0 60 60" width="512" xmlns="http://www.w3.org/2000/svg"><path d="m31.052 59.357a.5.5 0 0 1 -.317-.887l1.539-1.256-3.441 1.986a.5.5 0 0 1 -.539-.841l4.111-2.918-5.152 2.975a.5.5 0 0 1 -.53-.847l7.258-4.914-7.975 4.6a.5.5 0 0 1 -.521-.854l6.027-3.872-6.487 3.745a.5.5 0 0 1 -.52-.853l11.465-7.359-12.149 7.013a.5.5 0 0 1 -.514-.856l9.3-5.8-9.788 5.65a.5.5 0 0 1 -.512-.858l7.617-4.711-8.035 4.639a.5.5 0 0 1 -.517-.856l15.191-9.565-15.91 9.185a.5.5 0 0 1 -.515-.856l15.044-9.444-15.741 9.097a.5.5 0 0 1 -.511-.858l8.338-5.142-8.761 5.058a.5.5 0 0 1 -.516-.857l15.218-9.55-15.919 9.193a.5.5 0 0 1 -.515-.857l12.625-7.859-13.2 7.624a.5.5 0 0 1 -.511-.859l4.073-2.493-4.382 2.53a.5.5 0 0 1 -.517-.856l16.617-10.483-17.4 10.045a.5.5 0 0 1 -.517-.856l15.7-9.868-16.424 9.481a.5.5 0 0 1 -.517-.856l16.836-10.637-17.631 10.181a.5.5 0 0 1 -.51-.859l4.876-2.983-5.2 3a.5.5 0 0 1 -.514-.856l13.834-8.642-14.47 8.359a.5.5 0 0 1 -.515-.857l13.9-8.681-14.534 8.385a.5.5 0 0 1 -.513-.857l10.319-6.385-10.807 6.241a.5.5 0 0 1 -.515-.856l13.669-8.534-14.293 8.252a.5.5 0 0 1 -.513-.859l9.992-6.174-10.468 6.044a.5.5 0 0 1 -.51-.86l2.571-1.567-2.846 1.642a.5.5 0 0 1 -.515-.856l14.548-9.108-15.213 8.783a.5.5 0 0 1 -.513-.859l8.663-5.337-9.066 5.234a.5.5 0 0 1 -.516-.857l15.271-9.587-15.564 8.986a.5.5 0 0 1 -.514-.857l13.265-8.282-13.041 7.528a.5.5 0 0 1 -.511-.859l2.1-1.281-1.439.831a.5.5 0 0 1 -.513-.859l7.469-4.611-5.9 3.405a.5.5 0 0 1 -.52-.853l16.346-10.518-10.606 6.123a.5.5 0 0 1 -.518-.854l7.507-4.768-3.238 1.869a.5.5 0 0 1 -.524-.851l7.277-4.743-2.735 1.579a.5.5 0 0 1 -.524-.851l3.636-2.381a.5.5 0 0 1 -.352-.9l4.168-2.925a.513.513 0 0 1 -.46-.213.5.5 0 0 1 .094-.67l3.785-3.119a.409.409 0 0 1 -.061-.085.5.5 0 0 1 .182-.682l2.752-1.596a.5.5 0 0 1 .568.818l-1.933 1.591 3.951-2.28a.5.5 0 0 1 .537.842l-3.753 2.633 4.7-2.712a.5.5 0 0 1 .524.85l-3.064 2.009 3.478-2.007a.5.5 0 0 1 .523.852l-7.279 4.745 7.831-4.521a.5.5 0 0 1 .518.855l-7.501 4.762 7.99-4.612a.5.5 0 0 1 .521.854l-16.348 10.518 17.243-9.955a.5.5 0 0 1 .513.859l-7.476 4.615 7.885-4.552a.5.5 0 0 1 .511.859l-2.093 1.277 2.354-1.361a.5.5 0 0 1 .515.857l-13.26 8.281 13.875-8.011a.5.5 0 0 1 .516.857l-15.277 9.592 15.982-9.225a.5.5 0 0 1 .513.858l-8.651 5.33 9.087-5.247a.5.5 0 0 1 .516.857l-14.572 9.121 15.234-8.795a.5.5 0 0 1 .51.859l-2.527 1.54 2.8-1.616a.5.5 0 0 1 .513.859l-9.992 6.174 10.468-6.04a.5.5 0 0 1 .515.857l-13.665 8.53 14.293-8.252a.5.5 0 0 1 .513.858l-10.326 6.384 10.81-6.241a.5.5 0 0 1 .515.857l-13.9 8.681 14.53-8.388a.5.5 0 0 1 .515.856l-13.843 8.649 14.479-8.358a.5.5 0 0 1 .511.859l-4.89 2.991 5.218-3.012a.5.5 0 0 1 .516.855l-16.835 10.634 17.63-10.178a.5.5 0 0 1 .517.856l-15.678 9.856 16.4-9.469a.5.5 0 0 1 .516.855l-16.613 10.487 17.4-10.045a.5.5 0 0 1 .511.86l-4.076 2.488 4.387-2.529a.5.5 0 0 1 .514.857l-12.634 7.859 13.207-7.624a.5.5 0 0 1 .515.856l-15.23 9.559 15.92-9.191a.5.5 0 0 1 .511.859l-8.325 5.126 8.551-4.937a.5.5 0 0 1 .516.857l-15.036 9.438 15.047-8.687a.5.5 0 0 1 .517.855l-15.2 9.572 14.588-8.422a.5.5 0 0 1 .512.859l-7.616 4.7 5.988-3.457a.5.5 0 0 1 .515.856l-9.291 5.8 5.076-2.93a.5.5 0 0 1 .521.853l-11.457 7.357 6.44-3.717a.5.5 0 0 1 .521.853l-6.043 3.882 1.862-1.074a.5.5 0 0 1 .53.846l-7.26 4.915 2.29-1.322a.5.5 0 0 1 .539.841l-4.383 3.111a.5.5 0 0 1 .4.881l-3.52 2.874a.472.472 0 0 1 .051.075.5.5 0 0 1 -.182.682l-2.754 1.587a.491.491 0 0 1 -.248.067z" fill="#af4465"/><path d="m29.127 55.04a.5.5 0 0 1 -.313-.891l3.6-2.883-4.274 2.469a.5.5 0 0 1 -.536-.843l3.784-2.621-4.257 2.457a.5.5 0 0 1 -.528-.848l6.38-4.274-6.957 4.017a.5.5 0 0 1 -.518-.854l3.528-2.245-3.872 2.236a.5.5 0 0 1 -.518-.855l7.29-4.62-7.764 4.483a.5.5 0 0 1 -.515-.858l5.6-3.486-5.978 3.451a.5.5 0 0 1 -.515-.856l7.946-4.982-8.41 4.857a.5.5 0 0 1 -.513-.859l1.765-1.087-2.028 1.17a.5.5 0 0 1 -.514-.856l6.889-4.3-7.316 4.218a.5.5 0 0 1 -.517-.856l9.654-6.092-10.2 5.887a.5.5 0 0 1 -.513-.857l4.109-2.547-4.438 2.562a.5.5 0 0 1 -.518-.854l10.743-6.812-11.34 6.548a.5.5 0 0 1 -.519-.853l12.221-7.806-12.91 7.452a.5.5 0 0 1 -.515-.856l8.2-5.143-8.677 5.007a.5.5 0 0 1 -.52-.853l13.626-8.777-14.413 8.321a.5.5 0 0 1 -.519-.854l11.563-7.363-12.21 7.051a.5.5 0 0 1 -.52-.853l12.953-8.309-13.691 7.905a.5.5 0 0 1 -.523-.852l14.758-9.576-15.639 9.024a.5.5 0 0 1 -.521-.853l13.269-8.527-14.029 8.1a.5.5 0 0 1 -.516-.855l8.941-5.626-9.451 5.455a.5.5 0 0 1 -.515-.858l5.973-3.72-6.362 3.673a.5.5 0 0 1 -.523-.851l14.8-9.608-15.683 9.051a.5.5 0 0 1 -.523-.851l15.246-9.936-12.972 7.489a.5.5 0 0 1 -.515-.856l4.353-2.722-.605.35a.5.5 0 0 1 -.524-.852l8.382-5.466-3.644 2.1a.5.5 0 0 1 -.526-.85l4.636-3.058-.476.273a.5.5 0 0 1 -.671-.165.5.5 0 0 1 .136-.679l4.268-2.963a.5.5 0 0 1 -.413-.892l2.89-2.045a.483.483 0 0 1 -.134-.129.5.5 0 0 1 .077-.667l3.581-3.137a.5.5 0 0 1 .209-.631l1.547-.893a.5.5 0 0 1 .579.809l-1.43 1.252 2.029-1.171a.5.5 0 0 1 .539.84l-.472.334.7-.405a.5.5 0 0 1 .535.844l-4.09 2.84 4.589-2.65a.5.5 0 0 1 .525.85l-4.637 3.061 5.088-2.936a.5.5 0 0 1 .523.852l-8.378 5.462 8.984-5.185a.5.5 0 0 1 .515.856l-4.325 2.706 4.675-2.7a.5.5 0 0 1 .523.852l-15.256 9.944 16.184-9.343a.5.5 0 0 1 .522.852l-14.796 9.611 15.681-9.055a.5.5 0 0 1 .515.857l-5.955 3.709 6.346-3.663a.5.5 0 0 1 .516.855l-8.946 5.63 9.455-5.459a.5.5 0 0 1 .52.854l-13.265 8.524 14.025-8.1a.5.5 0 0 1 .523.852l-14.761 9.585 15.641-9.03a.5.5 0 0 1 .52.853l-12.952 8.309 13.69-7.9a.5.5 0 0 1 .519.854l-11.568 7.359 12.215-7.051a.5.5 0 0 1 .521.852l-13.622 8.775 14.41-8.32a.5.5 0 0 1 .516.857l-8.2 5.142 8.673-5.007a.5.5 0 0 1 .52.854l-12.222 7.809 12.912-7.455a.5.5 0 0 1 .518.855l-10.739 6.809 11.335-6.546a.5.5 0 0 1 .514.857l-4.114 2.552 4.446-2.567a.5.5 0 0 1 .517.856l-9.649 6.088 10.193-5.884a.5.5 0 0 1 .514.856l-6.888 4.3 7.312-4.222a.5.5 0 0 1 .513.859l-1.764 1.087 2.027-1.17a.5.5 0 0 1 .515.856l-7.945 4.981 8.109-4.68a.5.5 0 0 1 .515.858l-5.617 3.5 2.837-1.635a.5.5 0 0 1 .517.854l-7.271 4.606 3.051-1.76a.5.5 0 0 1 .519.855l-3.665 2.331a.5.5 0 0 1 .455.882l-6.376 4.27 1.725-.995a.5.5 0 0 1 .535.844l-4.125 2.855a.5.5 0 0 1 .387.885l-4.714 3.773a.5.5 0 0 1 .037.885l-4.133 2.386a.491.491 0 0 1 -.25.069z" fill="#ce5b79"/><path d="m30.728 45.445a.5.5 0 0 1 -.285-.911l.557-.383-2.06 1.187a.5.5 0 0 1 -.535-.844l3.211-2.226-4.682 2.7a.5.5 0 0 1 -.534-.845l4.922-3.389-6.222 3.596a.5.5 0 0 1 -.522-.852l.67-.434-1.265.729a.5.5 0 0 1 -.535-.843l7.934-5.5-9.052 5.225a.5.5 0 0 1 -.532-.845l8.202-5.61-9 5.194a.5.5 0 0 1 -.519-.854l.89-.567-1.037.6a.5.5 0 0 1 -.529-.847l8.061-5.426-8.414 4.857a.5.5 0 0 1 -.525-.85l6.109-4.023-6.166 3.56a.5.5 0 0 1 -.519-.854l1.661-1.061-1.452.838a.5.5 0 0 1 -.53-.848l7.9-5.318-7.625 4.399a.5.5 0 0 1 -.525-.851l4.878-3.2-4.321 2.491a.5.5 0 0 1 -.528-.847l6.056-4.059-5.139 2.966a.5.5 0 0 1 -.536-.844l7.144-4.956-5.516 3.184a.5.5 0 0 1 -.528-.849l2.616-1.749-.83.479a.5.5 0 0 1 -.546-.835l5.525-4.063-2.662 1.536a.5.5 0 0 1 -.548-.834l2.588-1.921-.35.2a.5.5 0 0 1 -.588-.8l3.181-2.922-.9.517a.5.5 0 0 1 -.613-.776l1.351-1.426a.5.5 0 0 1 -.658-.679l.824-1.622a.5.5 0 0 1 -.164-.925l1.027-.594a.5.5 0 0 1 .695.659l-.727 1.433 1.474-.852a.5.5 0 0 1 .614.777l-1.348 1.422 1.855-1.06a.5.5 0 0 1 .588.8l-3.178 2.92 3.945-2.278a.5.5 0 0 1 .548.834l-2.592 1.924 2.97-1.714a.5.5 0 0 1 .546.835l-5.523 4.059 6.122-3.534a.5.5 0 0 1 .529.848l-2.62 1.752 2.852-1.646a.5.5 0 0 1 .535.844l-7.141 4.956 7.644-4.413a.5.5 0 0 1 .528.847l-6.05 4.055 6.374-3.68a.5.5 0 0 1 .524.851l-4.886 3.209 5.09-2.938a.5.5 0 0 1 .529.848l-7.894 5.319 8.214-4.742a.5.5 0 0 1 .519.854l-1.658 1.059 1.655-.955a.5.5 0 0 1 .526.851l-6.108 4.02 6.211-3.585a.5.5 0 0 1 .53.848l-8.06 5.427 8.178-4.721a.5.5 0 0 1 .518.854l-.888.567.719-.415a.5.5 0 0 1 .533.846l-8.208 5.609 8.15-4.7a.5.5 0 0 1 .535.844l-7.929 5.495 7.684-4.437a.5.5 0 0 1 .521.853l-.674.436.2-.115a.5.5 0 0 1 .533.845l-4.927 3.392 4.252-2.454a.5.5 0 0 1 .535.844l-3.207 2.215 2.19-1.264a.5.5 0 0 1 .534.844l-1.141.789a.508.508 0 0 1 .432.22.5.5 0 0 1 -.106.673l-2.179 1.7a.494.494 0 0 1 .181.182.5.5 0 0 1 -.183.683l-4.265 2.463a.5.5 0 0 1 -.557-.827l.755-.589-3.584 2.068a.5.5 0 0 1 -.249.07z" fill="#e86981"/><path d="m30.965 45.4a.5.5 0 0 1 -.329-.876l1.988-1.738-4.139 2.39a.5.5 0 0 1 -.563-.822l3.678-2.972-5.083 2.934a.5.5 0 0 1 -.561-.825l5.109-4.042-6.1 3.525a.5.5 0 0 1 -.547-.835l4.6-3.4-4.975 2.872a.5.5 0 0 1 -.553-.83l5.94-4.527-6.03 3.482a.5.5 0 0 1 -.533-.844l1.913-1.315-1.5.867a.5.5 0 0 1 -.568-.818l1.226-1.012-.5.289a.5.5 0 0 1 -.579-.808l1.417-1.241-.208.121a.5.5 0 0 1 -.626-.762l1.85-2.116a.5.5 0 0 1 -.367-.774l.625-.942a.467.467 0 0 1 -.072-.1.5.5 0 0 1 .182-.682l.762-.44a.5.5 0 0 1 .614.09.5.5 0 0 1 .053.619l-.155.234.275-.159a.5.5 0 0 1 .626.762l-1.657 1.895 2.022-1.167a.5.5 0 0 1 .579.808l-1.419 1.241 1.277-.736a.5.5 0 0 1 .568.818l-1.226 1.011 7.359-4.248a.5.5 0 0 1 .533.845l-1.907 1.309 1.745-1.006a.5.5 0 0 1 .553.83l-5.942 4.528 5.889-3.4a.5.5 0 0 1 .547.835l-4.6 3.4 4.344-2.509a.5.5 0 0 1 .561.825l-5.11 4.041 4.729-2.725a.5.5 0 0 1 .563.822l-3.681 2.969 3-1.733a.5.5 0 0 1 .58.81l-1.988 1.732.291-.168a.5.5 0 0 1 .5.866l-4.73 2.731a.489.489 0 0 1 -.25.071z" fill="#fcd946"/><path d="m29.9 33.043a.5.5 0 0 1 -.348-.858l1.694-1.647-.31.179a.5.5 0 0 1 -.6-.788l.657-.65a.537.537 0 0 1 -.377-.156.5.5 0 0 1 -.055-.617l.931-1.427-.07.04a.5.5 0 0 1 -.731-.572l.44-1.508a.5.5 0 0 1 -.212-.932l.755-.435a.5.5 0 0 1 .73.572l-.404 1.388.8-.464a.5.5 0 0 1 .669.706l-.931 1.426 1.149-.663a.5.5 0 0 1 .6.788l-.49.484.426-.245a.5.5 0 0 1 .6.791l-1.692 1.645 1.741-1a.5.5 0 1 1 .5.865l-5.224 3.017a.5.5 0 0 1 -.248.061z" fill="#fcd946"/><g fill="#262626"><path d="m58.1 33.794c4.816-5.221-2.221-9.766-5.561-13.339l-14.824-14.829c-3-3.733-7.913-7.47-12.125-3.114q-11.769 11.719-23.49 23.488c-7.712 6.836 14.527 20.589 18.6 26.783 3.506 3.622 8.38 9.753 13.511 4.905 8.135-7.772 15.922-15.945 23.889-23.894zm-23.589 22.024c-3.123 4.122-7.1 2.809-9.871-1.04l-19.693-19.692c-3.875-2.665-4.17-7.433-.211-10.149 7.591-7.5 15.033-15.195 22.674-22.62 5.571-3.927 15.067 11.652 19.851 14.8 3.337 4.753 14.442 9.65 9.647 16.3q-11.2 11.203-22.397 22.401z"/><path d="m29.844 11.931c-2.018-1.414-3.243.923-3.195 2.743-1.541 6.77-8.141 11.183-9.288 18.069 1.739 26.134 46.605 9.227 12.483-20.812zm-5.762 28.1c-1.262-3.612 1.15-6.543 2.439-9.724a5.913 5.913 0 0 1 1.755 3.883c3.371.218 3.416-6.435 3.654-9.009 3.365 5.044 7.7 15.546.469 19.073a6.684 6.684 0 0 1 -8.317-4.219zm15.2.059a10.813 10.813 0 0 1 -4.144 3.3c5.6-1.976.19-22.669-4.572-19.118-.451 2.529.039 5.455-1.215 7.913-1.943-4.765-3.96-3.449-5.249.465-2.011 3.039-2.69 7.3-.069 10.183-13.409-8.57 2.89-20.134 4.572-30.2 6.673 6.737 16.873 17.602 10.68 27.461z"/><path d="m49.705 23.284c-4.042-2.515-18.282-22.17-21.47-17.717l-23.476 23.477c-1.28 1.435.63 2.8 1.606 3.742 7.4 7.362 14.749 14.81 22.154 22.155 1.562 1.279 2.887-.15 3.948-1.211 7.478-7.591 15.179-14.971 22.606-22.606 1.966-2.913-3.981-5.518-5.368-7.84zm2.859 8.867c-7.396 7.308-14.664 14.8-22.064 22.069-.622.716-1.3-.66-1.784-1.017l-22.224-22.221c-.486-.486-1.026-.94-.5-1.691l22.944-22.942c.937-1.991 2.456.542 3.235 1.331 7.215 7.266 14.534 14.458 21.729 21.728.886 1.084-.624 2.031-1.336 2.743z"/></g></svg>