<svg enable-background="new 0 0 512 512" height="512" viewBox="0 0 512 512" width="512" xmlns="http://www.w3.org/2000/svg"><g id="_x31_9_Growth"><g><path d="m466.082 110.052h-10.032c-6.05 0-10.972 4.922-10.972 10.972v289.323c0 6.049-4.922 10.971-10.972 10.971h-50.726c-6.049 0-10.971-4.922-10.971-10.971v-289.323c0-6.05-4.922-10.972-10.972-10.972h-10.033c-9.017 0-14.203-10.221-8.867-17.472l57.376-78.042c4.358-5.974 13.301-5.974 17.66 0l57.377 78.042c5.335 7.252.15 17.472-8.868 17.472z" fill="#d7e9ff"/><path d="m313.337 185.201h-10.032c-6.05 0-10.972 4.922-10.972 10.972v214.174c0 6.049-4.922 10.971-10.972 10.971h-50.725c-6.049 0-10.971-4.922-10.971-10.971v-214.174c0-6.05-4.922-10.972-10.972-10.972h-10.033c-9.017 0-14.203-10.221-8.867-17.472l57.376-78.042c4.358-5.974 13.301-5.974 17.66 0l57.376 78.042c5.335 7.251.15 17.472-8.868 17.472z" fill="#94c1ff"/><path d="m160.592 260.35h-10.032c-6.05 0-10.972 4.922-10.972 10.972v139.025c0 6.049-4.922 10.971-10.972 10.971h-50.725c-6.049 0-10.971-4.922-10.971-10.971v-139.025c0-6.05-4.922-10.972-10.972-10.972h-10.033c-9.017 0-14.203-10.221-8.867-17.472l57.376-78.042c4.358-5.974 13.301-5.974 17.66 0l57.376 78.042c5.336 7.251.15 17.472-8.868 17.472z" fill="#d7e9ff"/><path d="m498.542 481.089c0 5.749-2.33 10.971-6.088 14.767-3.795 3.757-8.98 6.087-14.729 6.087h-443.415c-11.536 0-20.854-9.319-20.854-20.854 0-5.749 2.33-10.934 6.087-14.729 3.795-3.757 8.98-6.087 14.766-6.087h443.416c11.498-.001 20.817 9.318 20.817 20.816z" fill="#fff"/><g fill="#116fff"><path d="m383.379 426.551h50.729c8.938 0 16.204-7.269 16.204-16.204v-289.324c0-3.163 2.576-5.739 5.739-5.739h10.031c13.338 0 20.933-15.13 13.082-25.804l-57.362-78.025c-6.445-8.841-19.671-8.838-26.103-.018l-57.377 78.04c-7.867 10.701-.223 25.806 13.082 25.806h10.031c3.163 0 5.739 2.576 5.739 5.739v289.323c0 8.936 7.272 16.206 16.205 16.206zm-21.943-321.732h-10.031c-4.749 0-7.44-5.342-4.65-9.14l57.387-78.058c2.241-3.066 6.896-3.158 9.214.015l57.377 78.045c2.797 3.803.089 9.137-4.65 9.137h-10.031c-8.933 0-16.204 7.269-16.204 16.204v289.323c0 3.163-2.576 5.739-5.739 5.739h-50.729c-3.163 0-5.739-2.576-5.739-5.739v-289.322c-.001-8.935-7.273-16.204-16.205-16.204z"/><path d="m230.636 426.551h50.724c8.938 0 16.204-7.269 16.204-16.204v-214.174c0-3.163 2.576-5.739 5.744-5.739h10.031c13.301 0 20.946-15.11 13.082-25.806l-57.367-78.025c-6.458-8.859-19.678-8.827-26.103-.015l-57.372 78.038c-7.877 10.7-.221 25.809 13.082 25.809h10.031c3.163 0 5.739 2.576 5.739 5.739v214.173c0 8.934 7.267 16.204 16.205 16.204zm-21.943-246.582h-10.031c-4.736 0-7.455-5.338-4.65-9.142l57.382-78.055c2.261-3.093 6.919-3.133 9.219.015l57.377 78.04c2.795 3.804.087 9.142-4.65 9.142h-10.031c-8.938 0-16.209 7.269-16.209 16.204v214.173c0 3.163-2.576 5.739-5.739 5.739h-50.724c-3.163 0-5.739-2.576-5.739-5.739v-214.173c-.001-8.935-7.273-16.204-16.205-16.204z"/><path d="m77.892 426.551h50.724c8.933 0 16.204-7.269 16.204-16.204v-139.026c0-3.163 2.576-5.739 5.739-5.739h10.031c13.286 0 20.968-15.089 13.087-25.804l-57.367-78.027c-6.458-8.859-19.678-8.827-26.103-.015l-57.377 78.04c-7.882 10.722-.195 25.806 13.082 25.806h10.036c3.163 0 5.739 2.576 5.739 5.739v139.025c.001 8.935 7.273 16.205 16.205 16.205zm-21.943-171.434h-10.036c-4.728 0-7.452-5.331-4.65-9.14l57.387-78.058c2.261-3.093 6.919-3.133 9.219.015l57.377 78.045c2.799 3.8.083 9.137-4.655 9.137h-10.031c-8.933 0-16.204 7.269-16.204 16.204v139.025c0 3.163-2.576 5.739-5.739 5.739h-50.725c-3.163 0-5.739-2.576-5.739-5.739v-139.024c.001-8.935-7.271-16.204-16.204-16.204z"/><path d="m8.225 481.089c0 14.385 11.702 26.087 26.082 26.087h443.415c14.389 0 26.052-11.628 26.052-26.087 0-14.365-11.687-26.049-26.052-26.049h-443.414c-14.409 0-26.083 11.617-26.083 26.049zm26.083-15.584h443.415c8.595 0 15.586 6.991 15.586 15.583 0 8.748-7.042 15.622-15.586 15.622h-443.415c-8.611 0-15.617-7.009-15.617-15.622 0-8.653 6.987-15.583 15.617-15.583z"/></g></g></g></svg>