<?xml version="1.0" encoding="UTF-8"?>
<svg xmlns="http://www.w3.org/2000/svg" id="icons" viewBox="0 0 60 60" width="512" height="512"><path d="M21.246,56.5a.5.5,0,0,1-.293-.905l1.816-1.316-3.487,2.013a.5.5,0,0,1-.546-.836l4.607-3.386a.5.5,0,0,1-.135-.516l.57-1.8a.51.51,0,0,1-.18-.183.5.5,0,0,1,.182-.682l.5-.29a.5.5,0,0,1,.727.584l-.458,1.445,3.531-2.038a.5.5,0,0,1,.546.836l-2,1.473,4.013-2.316a.5.5,0,0,1,.543.838L29.36,50.735,33.1,48.574a.5.5,0,0,1,.576.813l-4.059,3.48,6.1-3.52a.5.5,0,0,1,.578.81l-3.216,2.79,2.97-1.714a.5.5,0,0,1,.578.81l-1.067.931,1.149-.663a.5.5,0,0,1,.7.657l-.876,1.741,1.82-1.05a.5.5,0,0,1,.667.708l-.077.115.509-.293a.5.5,0,0,1,.725.277l.252.764.307-.177a.5.5,0,1,1,.5.865l-.84.485a.5.5,0,0,1-.725-.276l-.252-.765-1.81,1.045a.5.5,0,0,1-.667-.708l.077-.116-1.434.827a.5.5,0,0,1-.7-.657l.875-1.74-4.162,2.4a.5.5,0,0,1-.579-.81l1.071-.933-3.026,1.746a.5.5,0,0,1-.578-.811L31.7,52.82l-6.241,3.6a.5.5,0,0,1-.575-.813l4.059-3.481L21.5,56.43A.491.491,0,0,1,21.246,56.5Z" fill="#b0ccdd"/><path d="M18.773,50.47a.5.5,0,0,1-.293-.906l.27-.2L16.961,50.4a.5.5,0,0,1-.551-.832l1.346-1.013-3.2,1.845a.5.5,0,0,1-.576-.812l2.84-2.434L11.2,50.4a.5.5,0,0,1-.567-.818l2.549-2.1L8.13,50.4a.5.5,0,0,1-.557-.827l1.918-1.494L5.471,50.4a.5.5,0,0,1-.559-.826l2.029-1.592-4.1,2.37a.5.5,0,0,1-.559-.827l1.967-1.543L1.607,49.507a.5.5,0,0,1-.569-.818l1.527-1.265-1.286.742a.5.5,0,0,1-.592-.8l.789-.74-.2.115a.5.5,0,0,1-.669-.706l.557-.853A.507.507,0,0,1,.9,44.963a.5.5,0,0,1,.183-.684L2.263,43.6a.5.5,0,0,1,.669.707l-.345.528L4.727,43.6a.5.5,0,0,1,.591.8l-.791.743L7.2,43.6a.5.5,0,0,1,.57.817L6.24,45.677,9.846,43.6a.5.5,0,0,1,.558.826L8.436,45.967,12.543,43.6a.5.5,0,0,1,.559.826L11.07,46.016l4.193-2.42a.5.5,0,0,1,.556.827L13.9,45.916,17.923,43.6a.5.5,0,0,1,.567.818l-2.551,2.1L20.994,43.6a.5.5,0,0,1,.575.812l-2.838,2.432,5.622-3.245a.5.5,0,0,1,.55.832l-1.348,1.015,3.2-1.847a.5.5,0,0,1,.543.838l-.268.193,1.788-1.032a.5.5,0,0,1,.555.829l-1.74,1.339,3.756-2.168a.5.5,0,0,1,.554.829L30.2,45.766l3.765-2.173a.5.5,0,0,1,.546.836l-.788.579,2.453-1.416a.5.5,0,0,1,.579.808l-2.959,2.593,5.893-3.4a.5.5,0,0,1,.582.806L37.26,47.065l6.018-3.474a.5.5,0,0,1,.588.8L40.745,47.25l6.34-3.66a.5.5,0,0,1,.559.826L45.622,46,49.8,43.59a.5.5,0,0,1,.576.811l-2.883,2.488,5.716-3.3a.5.5,0,0,1,.552.831l-1.495,1.135,3.4-1.966a.5.5,0,0,1,.568.818l-2.589,2.138,4.465-2.577a.5.5,0,0,1,.551.832l-.866.653.922-.532a.5.5,0,0,1,.569.817l-1.036.861.467-.269a.5.5,0,0,1,.636.75l-.889,1.085.184-.106a.5.5,0,1,1,.5.865L56.59,50.4a.5.5,0,0,1-.637-.75l.89-1.085L53.664,50.4a.5.5,0,0,1-.569-.817l1.035-.86L51.224,50.4a.5.5,0,0,1-.551-.832l.865-.652L48.967,50.4a.5.5,0,0,1-.569-.818l2.59-2.139L45.865,50.4a.5.5,0,0,1-.552-.831l1.494-1.133L43.4,50.4a.5.5,0,0,1-.576-.811L45.712,47.1,40,50.4a.5.5,0,0,1-.559-.826l2.021-1.583L37.284,50.4a.5.5,0,0,1-.653-.136A.5.5,0,0,1,36.7,49.6l3.122-2.858L33.479,50.4A.5.5,0,0,1,32.9,49.6l3.01-2.667L29.888,50.4a.5.5,0,0,1-.579-.808L32.267,47l-5.891,3.4a.5.5,0,0,1-.546-.836l.79-.58L24.166,50.4a.5.5,0,0,1-.555-.829l1.746-1.344L21.593,50.4a.5.5,0,0,1-.555-.829l1.738-1.337L19.023,50.4A.493.493,0,0,1,18.773,50.47Z" fill="#bfdbf0"/><path d="M22.958,59.47a.5.5,0,0,1-.317-.886l.12-.1L21.17,59.4a.5.5,0,0,1-.6-.789l1.2-1.179L18.36,59.4a.5.5,0,0,1-.594-.8l1.094-1.04-2.417,1.4a.5.5,0,0,1-.657-.723l1.142-1.606-.064.036a.5.5,0,0,1-.5-.865l2.05-1.184a.5.5,0,0,1,.657.723L17.929,56.95,22.005,54.6a.5.5,0,0,1,.6.8l-1.1,1.04,3.18-1.835a.5.5,0,0,1,.6.789l-1.2,1.179L27.494,54.6a.5.5,0,0,1,.568.818l-.123.1,1.594-.92a.5.5,0,0,1,.579.808l-.668.586L31.86,54.6a.5.5,0,0,1,.577.811l-.552.476,2.23-1.287a.5.5,0,0,1,.623.765l-1.444,1.619L37.426,54.6a.5.5,0,0,1,.641.744l-1.494,1.88,4.509-2.6a.5.5,0,0,1,.581.808l-.687.606,1.508-.871a.5.5,0,0,1,.611.778l-.8.838,1.069-.617a.5.5,0,0,1,.7.656l-.444.888.1-.055a.5.5,0,0,1,.5.866l-1.536.886a.5.5,0,0,1-.7-.656l.443-.888L39.746,59.4a.5.5,0,0,1-.61-.778l.8-.839-2.8,1.617a.5.5,0,0,1-.581-.807l.686-.6L34.8,59.4a.5.5,0,0,1-.642-.744l1.494-1.881L31.1,59.4a.5.5,0,0,1-.623-.765l1.444-1.619L27.791,59.4a.5.5,0,0,1-.576-.811l.552-.476L25.536,59.4a.5.5,0,0,1-.579-.808l.67-.587-2.419,1.4A.493.493,0,0,1,22.958,59.47Z" fill="#bfdbf0"/><path d="M1.527,45.5a.5.5,0,0,1-.259-.928L20.6,32.826,1.28,43.979a.5.5,0,0,1-.509-.86l15.1-9.125L1.28,42.418a.5.5,0,0,1-.51-.859L24.307,27.18,1.28,40.474a.5.5,0,0,1-.51-.86l22.467-13.7L1.28,38.588a.5.5,0,0,1-.509-.86L18.033,27.271,1.28,36.943a.5.5,0,0,1-.512-.858L28.822,18.769,1.28,34.67a.5.5,0,0,1-.51-.859L22.149,20.716,1.28,32.764A.5.5,0,0,1,.771,31.9l12.684-7.7L1.28,31.232a.5.5,0,0,1-.509-.86L9.229,25.25,1.28,29.838a.5.5,0,0,1-.509-.859l9.921-6.041L1.28,28.371a.5.5,0,0,1-.512-.857l15.667-9.7L1.28,26.566a.5.5,0,0,1-.514-.856L16.18,16.094,1.28,24.7a.5.5,0,0,1-.515-.855l14.406-9.056L1.28,22.8a.5.5,0,0,1-.514-.857l9.561-5.968L1.28,21.2a.5.5,0,0,1-.519-.853l12.644-8.1-12.125,7a.5.5,0,0,1-.517-.855l7.415-4.7-6.9,3.982a.5.5,0,0,1-.52-.854l7.333-4.705L1.28,16.049A.5.5,0,0,1,.757,15.2L7.73,10.648,1.28,14.372a.5.5,0,0,1-.535-.844l8.672-6.01-8.137,4.7a.5.5,0,0,1-.546-.836l7.283-5.34L1.28,9.928A.5.5,0,0,1,.727,9.1l4.95-3.79L1.28,7.846a.5.5,0,0,1-.545-.837l1.171-.853-.626.361a.5.5,0,0,1-.614-.776L3.092,3.166,1.28,4.212A.5.5,0,0,1,.622,3.49l.709-1a.508.508,0,0,1-.446-.25.5.5,0,0,1,.182-.682L2.726.6a.5.5,0,0,1,.658.721L2.759,2.2,5.541.6a.5.5,0,0,1,.614.775L3.729,3.949,9.534.6a.5.5,0,0,1,.545.837L8.91,2.287,11.836.6a.5.5,0,0,1,.554.83L7.439,5.218l8-4.62a.5.5,0,0,1,.546.836L8.707,6.772,19.4.6a.5.5,0,0,1,.535.843L11.267,7.452,23.14.6a.5.5,0,0,1,.523.851L16.685,6,26.045.6a.5.5,0,0,1,.52.853l-7.327,4.7L28.86.6a.5.5,0,0,1,.518.855l-7.417,4.7L31.577.6a.5.5,0,0,1,.52.853l-12.646,8.1L34.969.6a.5.5,0,0,1,.514.856l-9.55,5.962L37.743.6a.5.5,0,0,1,.516.855L23.845,10.514,41.021.6a.5.5,0,0,1,.514.856L26.118,11.072,44.262.6a.5.5,0,0,1,.512.857l-15.668,9.7L47.388.6a.5.5,0,0,1,.509.859L37.984,7.493,49.928.6a.5.5,0,0,1,.509.86L42,6.567,52.342.6a.5.5,0,0,1,.51.86l-12.7,7.71L55,.6a.5.5,0,0,1,.68.176.5.5,0,0,1-.169.683l-21.38,13.1L57.779.9a.5.5,0,0,1,.513.859L30.237,19.071,58.72,2.627a.5.5,0,0,1,.509.86L41.963,13.945,58.722,4.271a.5.5,0,0,1,.51.859l-22.46,13.7L58.723,6.155a.5.5,0,0,1,.51.86L35.7,21.389,58.724,8.1a.5.5,0,0,1,.508.86L44.144,18.077,58.725,9.659a.5.5,0,0,1,.509.861L39.876,22.282,58.727,11.4a.5.5,0,0,1,.508.861l-13.18,7.975,12.673-7.316a.5.5,0,0,1,.509.859L44.456,22.771l14.273-8.24a.5.5,0,0,1,.509.86L46.85,22.931l11.879-6.859a.5.5,0,0,1,.512.86L45.226,25.521l13.5-7.8a.5.5,0,0,1,.517.855L38.1,31.931l20.628-11.91a.5.5,0,0,1,.513.857L47.388,28.217l11.345-6.55a.5.5,0,0,1,.516.856L45.92,30.884l12.815-7.4a.5.5,0,0,1,.516.857L48.522,31.077l10.214-5.9a.5.5,0,0,1,.515.856l-6.583,4.112,6.069-3.5a.5.5,0,0,1,.52.853l-9.839,6.309,9.32-5.381a.5.5,0,0,1,.519.854l-6.195,3.952,5.677-3.278a.5.5,0,0,1,.517.856l-1.813,1.144,1.3-.748a.5.5,0,0,1,.521.853l-3.575,2.3L58.741,32.6a.5.5,0,0,1,.532.845l-6.662,4.558,6.132-3.54a.5.5,0,0,1,.536.843l-4.827,3.364,4.292-2.478a.5.5,0,0,1,.539.841l-2.91,2.057,2.372-1.369a.5.5,0,0,1,.567.819L55.72,41.488l3.027-1.747a.5.5,0,0,1,.566.82l-1.114.913.549-.317a.5.5,0,0,1,.628.761l-.98,1.129.353-.2a.5.5,0,0,1,.73.574l-.243.824a.5.5,0,0,1,.014.873l-.5.289a.5.5,0,0,1-.729-.574l.145-.495L56.312,45.4a.5.5,0,0,1-.628-.76l.981-1.13-3.277,1.891a.5.5,0,0,1-.567-.819l1.113-.911-3,1.732a.5.5,0,0,1-.568-.819l3.591-2.945-6.523,3.766a.5.5,0,0,1-.539-.841l2.915-2.06-5.028,2.9a.5.5,0,0,1-.536-.843l4.825-3.362-7.288,4.207a.5.5,0,0,1-.532-.846l6.664-4.558-9.363,5.4a.5.5,0,0,1-.521-.852l3.571-2.3-5.469,3.157a.5.5,0,0,1-.517-.855l1.812-1.145-3.466,2a.5.5,0,0,1-.519-.854L39.648,40.6l-8.339,4.814a.5.5,0,0,1-.52-.854l9.83-6.3-12.4,7.158a.5.5,0,0,1-.515-.856l6.6-4.12L25.68,45.42a.5.5,0,0,1-.516-.857l10.722-6.732L22.738,45.422a.5.5,0,0,1-.515-.857L35.559,36.2,19.586,45.423a.5.5,0,0,1-.513-.858L30.925,37.23l-14.195,8.2a.5.5,0,0,1-.516-.856L37.36,31.217,12.748,45.427a.5.5,0,0,1-.512-.86L26.26,35.973,9.883,45.428a.5.5,0,0,1-.51-.86l12.38-7.535L7.21,45.43a.5.5,0,0,1-.51-.86l14.8-9.006L4.413,45.431A.5.5,0,0,1,3.9,44.57L17.076,36.6l-15.3,8.832A.494.494,0,0,1,1.527,45.5Z" fill="#2d629b"/><path d="M13.019,41.47a.5.5,0,0,1-.261-.927l8.143-4.98L10.787,41.4a.5.5,0,0,1-.512-.858l13.371-8.217L7.927,41.4a.5.5,0,0,1-.514-.857L27.585,28.04,5.379,40.86A.5.5,0,0,1,4.865,40L28.074,25.6,5.28,38.757a.5.5,0,0,1-.509-.861L12.866,33,5.28,37.379a.5.5,0,0,1-.509-.86l9.08-5.5L5.28,35.968a.5.5,0,0,1-.512-.859L25.232,22.476,5.28,33.994a.5.5,0,0,1-.511-.858l14.828-9.1L5.28,32.3a.5.5,0,0,1-.509-.861l4.376-2.653L5.28,31.018a.5.5,0,0,1-.517-.856L24.47,17.683,5.28,28.762a.5.5,0,0,1-.518-.855L22.326,16.7,5.28,26.537a.5.5,0,0,1-.512-.858L10.3,22.261l-5.021,2.9a.5.5,0,0,1-.514-.856l6.87-4.288L5.28,23.684a.5.5,0,0,1-.516-.856L12.2,18.135,5.28,22.129a.5.5,0,0,1-.527-.849L16.864,13.2,5.28,19.891a.5.5,0,0,1-.524-.851l7.615-5.011L5.28,18.123a.5.5,0,0,1-.522-.852l3.356-2.177L5.28,16.729a.5.5,0,0,1-.528-.847l4.363-2.924L5.28,15.172a.5.5,0,0,1-.551-.832l6.329-4.76L5.28,12.915a.5.5,0,0,1-.555-.828L8.506,9.161,5.28,11.022a.5.5,0,0,1-.556-.828l1.37-1.062L5.28,9.6a.5.5,0,0,1-.642-.743L6.289,6.766,5.28,7.348a.5.5,0,0,1-.67-.7l.3-.474a.5.5,0,0,1-.082-.9L5.994,4.6a.5.5,0,0,1,.67.7l-.095.148L8.044,4.6a.5.5,0,0,1,.643.742L7.035,7.435,11.949,4.6a.5.5,0,0,1,.557.828l-1.37,1.061L14.41,4.6a.5.5,0,0,1,.556.828L11.187,8.351l6.5-3.753a.5.5,0,0,1,.551.832l-6.327,4.758L21.6,4.6a.5.5,0,0,1,.528.847L17.755,8.373,24.3,4.6a.5.5,0,0,1,.522.852L21.465,7.624,26.708,4.6a.5.5,0,0,1,.524.85l-7.615,5.011L29.77,4.6a.5.5,0,0,1,.527.848L18.186,13.523,33.646,4.6a.5.5,0,0,1,.517.855l-7.439,4.695L36.34,4.6a.5.5,0,0,1,.514.856L29.985,9.741,38.9,4.6a.5.5,0,0,1,.512.858L33.874,8.874,41.282,4.6a.5.5,0,0,1,.519.854L24.239,16.661,45.135,4.6a.5.5,0,0,1,.517.855L25.945,17.932,49.042,4.6a.5.5,0,0,1,.509.86l-4.4,2.669L51.263,4.6a.5.5,0,0,1,.511.858l-14.82,9.1,17.131-9.89a.5.5,0,0,1,.513.858L34.129,18.158,54.72,6.271a.5.5,0,0,1,.509.86l-9.051,5.481L54.72,7.681a.5.5,0,0,1,.509.86l-8.095,4.9L54.72,9.059a.5.5,0,0,1,.513.857L32.016,24.327,54.72,11.22a.5.5,0,0,1,.513.857l-20.167,12.5L54.72,13.232a.5.5,0,0,1,.511.859L41.844,22.318,54.72,14.885a.5.5,0,0,1,.51.859l-8.12,4.965,7.61-4.393a.5.5,0,0,1,.518.855L36.789,28.907,54.72,18.556a.5.5,0,0,1,.516.855L42.537,27.4,54.72,20.369a.5.5,0,0,1,.52.853L41.2,30.269,54.72,22.462a.5.5,0,0,1,.522.851L43.124,31.2l11.6-6.694a.5.5,0,0,1,.529.847L43.4,33.34,54.72,26.808a.5.5,0,0,1,.533.844l-9.419,6.464,8.886-5.13a.5.5,0,0,1,.542.839l-7.931,5.7,7.389-4.265a.5.5,0,0,1,.545.837L50.119,35.85l4.6-2.656a.5.5,0,0,1,.541.839l-1.969,1.411,1.428-.824a.5.5,0,0,1,.581.808l-2.966,2.621,2.385-1.376a.5.5,0,0,1,.624.764L53.96,39l.76-.438a.493.493,0,0,1,.608.084.5.5,0,0,1,.068.61l-.345.562a.5.5,0,0,1,.116.914l-1.16.67a.5.5,0,0,1-.676-.694l.181-.3L51.8,41.4a.5.5,0,0,1-.624-.763l1.383-1.563L48.526,41.4a.5.5,0,0,1-.581-.807l2.966-2.621L44.971,41.4a.5.5,0,0,1-.541-.839L46.4,39.152,42.5,41.4a.5.5,0,0,1-.545-.837L47.1,36.814,39.152,41.4a.5.5,0,0,1-.542-.839l7.929-5.7L35.214,41.4a.5.5,0,0,1-.533-.844L44.1,34.092,31.439,41.4a.5.5,0,0,1-.529-.847l11.844-7.982L27.46,41.4a.5.5,0,0,1-.523-.851L39.056,32.66,23.913,41.4a.5.5,0,0,1-.52-.852L37.445,31.5,20.286,41.4a.5.5,0,0,1-.516-.855l12.688-7.984L17.146,41.4a.5.5,0,0,1-.518-.854L35.074,28.813,13.269,41.4A.5.5,0,0,1,13.019,41.47Z" fill="#e1efff"/><path d="M45.533,41.488a.5.5,0,0,1-.4-.8l.987-1.312L44.28,40.438a.5.5,0,0,1-.623-.765l1.9-2.126-1.273.734a.5.5,0,0,1-.592-.8l.781-.729-.189.108a.5.5,0,0,1-.6-.788l1.2-1.191-.6.347a.5.5,0,0,1-.589-.8l.63-.579-.041.023a.5.5,0,0,1-.613-.776l1.6-1.687-.984.568a.5.5,0,0,1-.585-.8l.477-.43a.5.5,0,0,1-.488-.839l1.015-.981-.419.242a.5.5,0,0,1-.618-.771L45.4,26.51l-1.118.645a.5.5,0,0,1-.625-.762l1.938-2.2-1.313.758a.5.5,0,0,1-.627-.761l1.97-2.256-1.343.775a.5.5,0,0,1-.622-.767L45.5,19.891l-1.219.7a.5.5,0,0,1-.611-.779L45.2,18.209l-.924.533a.5.5,0,0,1-.606-.783l1.372-1.4L44.28,17a.5.5,0,0,1-.617-.772l1.713-1.856-1.1.632a.5.5,0,0,1-.625-.763l1.689-1.918-1.064.613a.5.5,0,0,1-.7-.652l.533-1.088a.5.5,0,0,1-.281-.931l1.161-.67a.5.5,0,0,1,.7.652l-.492,1,2.282-1.317a.5.5,0,0,1,.625.762l-1.687,1.917,1.3-.751a.5.5,0,0,1,.617.772l-1.713,1.857,1.1-.634a.5.5,0,0,1,.606.784l-1.374,1.4.769-.443a.5.5,0,0,1,.611.778L46.8,17.983l.924-.533a.5.5,0,0,1,.622.767l-1.841,2.049,1.221-.7a.5.5,0,0,1,.626.761l-1.97,2.257,1.346-.777a.5.5,0,0,1,.625.762l-1.938,2.2,1.315-.759a.5.5,0,0,1,.619.771l-1.736,1.884,1.119-.645a.5.5,0,0,1,.6.792l-1.019.983.424-.244a.5.5,0,0,1,.585.8l-.475.428a.5.5,0,0,1,.5.823l-1.6,1.686.984-.568a.5.5,0,0,1,.589.8L47.7,32.1l.041-.024a.5.5,0,0,1,.6.788l-1.206,1.194.606-.35a.5.5,0,0,1,.592.8l-.779.728.188-.108a.5.5,0,0,1,.623.766l-1.9,2.127,1.276-.737a.5.5,0,0,1,.649.734l-.988,1.312.341-.2a.5.5,0,1,1,.5.865l-2.466,1.423A.489.489,0,0,1,45.533,41.488Z" fill="#9ebbce"/><path d="M13.248,41.491a.5.5,0,0,1-.37-.836L13.47,40l-1.19.686a.5.5,0,0,1-.587-.8l.563-.514a.5.5,0,0,1-.575-.8l1.125-1.1-.526.3a.5.5,0,0,1-.593-.8l.847-.8-.254.146a.5.5,0,0,1-.615-.773l1.676-1.8-1.061.612a.5.5,0,0,1-.616-.772l1.7-1.827-1.081.623a.5.5,0,0,1-.614-.775L13.3,29.872l-1.023.59a.5.5,0,0,1-.584-.8l.449-.4a.5.5,0,0,1-.486-.821l1.827-2.023-1.206.7a.5.5,0,0,1-.607-.782l1.418-1.453-.811.468a.5.5,0,0,1-.617-.773l1.7-1.839-1.087.627a.5.5,0,0,1-.6-.792l1.013-.979-.416.24a.5.5,0,0,1-.615-.774l1.646-1.758-1.031.595a.5.5,0,0,1-.6-.789l1.142-1.123-.542.312a.5.5,0,0,1-.618-.77L13.4,15.622l-1.119.647a.5.5,0,0,1-.588-.8l.585-.537a.5.5,0,0,1-.6-.785l1.272-1.3-.666.384a.5.5,0,0,1-.708-.632l.618-1.413a.5.5,0,0,1-.357-.92l1.161-.67a.5.5,0,0,1,.708.632l-.6,1.375,2.524-1.457a.5.5,0,0,1,.606.784l-1.274,1.3.766-.441a.5.5,0,0,1,.588.8l-.584.536a.5.5,0,0,1,.615.772L14.6,15.791l1.122-.647a.5.5,0,0,1,.6.789l-1.142,1.123.544-.314a.5.5,0,0,1,.641.122.5.5,0,0,1-.026.653L14.7,19.274l1.033-.6a.5.5,0,0,1,.6.792l-1.013.977.416-.24a.5.5,0,0,1,.618.772l-1.7,1.84,1.088-.628a.5.5,0,0,1,.608.783l-1.418,1.453.812-.469a.5.5,0,0,1,.621.768L14.527,26.75l1.208-.7a.5.5,0,0,1,.584.8l-.446.4a.5.5,0,0,1,.478.829l-1.638,1.745,1.025-.592a.5.5,0,0,1,.616.773l-1.695,1.826,1.081-.624a.5.5,0,0,1,.615.773l-1.676,1.8,1.063-.613a.5.5,0,0,1,.593.8l-.85.8.259-.15a.5.5,0,0,1,.6.79l-1.123,1.1.525-.3a.5.5,0,0,1,.587.8l-.564.514a.5.5,0,0,1,.6.782l-.592.65a.5.5,0,0,1,.7.6l-.223.693a.517.517,0,0,1,.183.183.5.5,0,0,1-.184.683l-.507.292a.5.5,0,0,1-.725-.587l.107-.336-1.627.94A.489.489,0,0,1,13.248,41.491Z" fill="#9ebbce"/><path d="M27.255,22.47a.5.5,0,0,1-.288-.908l2.317-1.638L24.99,22.4a.5.5,0,0,1-.535-.843l1.518-1.052L22.688,22.4a.5.5,0,0,1-.535-.843l1.6-1.113L20.366,22.4a.5.5,0,0,1-.548-.835l3.651-2.7L17.345,22.4a.5.5,0,0,1-.54-.839l2.653-1.893L14.725,22.4a.5.5,0,0,1-.543-.838l3.141-2.276L11.928,22.4a.5.5,0,0,1-.551-.832l3.971-2.985-5.89,3.4a.5.5,0,0,1-.532-.845l.229-.157a.5.5,0,0,1-.429-.88l2.431-1.873L9.28,19.313a.5.5,0,0,1-.552-.832l.348-.263a.512.512,0,0,1-.436-.187.5.5,0,0,1,.023-.651l1.17-1.263-.553.319a.5.5,0,0,1-.676-.7l.344-.559a.5.5,0,0,1-.115-.914l1.161-.67a.5.5,0,0,1,.676.694l-.178.289,1.7-.983a.5.5,0,0,1,.617.772l-1.17,1.264L15.171,13.6a.5.5,0,0,1,.553.831l-.057.042,1.514-.873a.5.5,0,0,1,.554.829L15.3,16.3l4.679-2.7a.5.5,0,0,1,.533.845l-.032.022,1.5-.867a.5.5,0,0,1,.551.832l-3.972,2.986L25.181,13.6a.5.5,0,0,1,.543.838l-3.14,2.274L27.977,13.6a.5.5,0,0,1,.54.84L25.86,16.332,30.6,13.6a.5.5,0,0,1,.548.835l-3.651,2.7L33.619,13.6a.5.5,0,0,1,.535.843l-1.6,1.113L35.941,13.6a.5.5,0,0,1,.536.843l-1.518,1.052L38.243,13.6a.5.5,0,0,1,.538.84l-2.317,1.638L40.758,13.6a.5.5,0,0,1,.554.829l-4.321,3.321,7.191-4.15a.5.5,0,0,1,.557.826l-4.53,3.54L47.773,13.6a.5.5,0,0,1,.54.84l-2.532,1.8,4.4-2.539a.5.5,0,0,1,.549.833l-3.767,2.823,3.758-2.169a.5.5,0,0,1,.574.813l-3.285,2.8,2.711-1.565a.5.5,0,0,1,.6.788l-1.611,1.6,1.009-.582a.5.5,0,0,1,.7.651L50.881,20.8a.5.5,0,0,1,.286.931l-1.16.67a.5.5,0,0,1-.7-.651l.5-1.029L46.9,22.4a.5.5,0,0,1-.6-.787l1.609-1.6L43.763,22.4a.5.5,0,0,1-.575-.813l3.287-2.8L40.217,22.4a.5.5,0,0,1-.55-.833l3.77-2.823L37.1,22.4a.5.5,0,0,1-.54-.839l2.534-1.8L34.521,22.4a.5.5,0,0,1-.558-.826l4.53-3.54L30.929,22.4a.5.5,0,0,1-.555-.829L34.7,18.252l-7.19,4.15A.5.5,0,0,1,27.255,22.47Z" fill="#e3c84c"/><path d="M38.245,35.47a.5.5,0,0,1-.283-.912l1.03-.707L36.3,35.4a.5.5,0,0,1-.535-.842l1.65-1.148L33.969,35.4a.5.5,0,0,1-.545-.837l3.339-2.436L31.091,35.4a.5.5,0,0,1-.547-.835l3.56-2.623L28.113,35.4a.5.5,0,0,1-.554-.829l4.31-3.31L24.7,35.4a.5.5,0,0,1-.558-.826L28.7,31.008,21.082,35.4a.5.5,0,0,1-.544-.837l3.233-2.351L18.248,35.4a.5.5,0,0,1-.561-.824l4.722-3.758L14.471,35.4a.5.5,0,0,1-.559-.826L18.474,31l-7.622,4.4a.5.5,0,0,1-.534-.844l1.156-.8L9.431,34.941a.5.5,0,0,1-.546-.836l2.785-2.039L9.28,33.445a.5.5,0,0,1-.546-.836l.849-.623-.3.174a.5.5,0,0,1-.6-.791l1.949-1.893-1.351.779a.5.5,0,0,1-.709-.632L9.2,28.188a.5.5,0,0,1-.363-.92l1.161-.67a.5.5,0,0,1,.709.631l-.609,1.4L13.615,26.6a.5.5,0,0,1,.6.791l-1.951,1.895L16.917,26.6a.5.5,0,0,1,.546.836l-.847.622L19.143,26.6a.5.5,0,0,1,.545.836l-2.781,2.037L21.883,26.6a.5.5,0,0,1,.533.844l-1.166.8L24.1,26.6a.5.5,0,0,1,.559.826L20.1,31l7.622-4.4a.5.5,0,0,1,.561.824L23.562,31.18,31.5,26.6a.5.5,0,0,1,.544.837l-3.233,2.351L34.335,26.6a.5.5,0,0,1,.559.826l-4.557,3.568L37.95,26.6a.5.5,0,0,1,.555.829l-4.311,3.31L41.366,26.6a.5.5,0,0,1,.547.835l-3.559,2.623,5.99-3.458a.5.5,0,0,1,.545.837L41.55,29.871,47.222,26.6a.5.5,0,0,1,.535.842l-1.651,1.148,3.45-1.99a.5.5,0,0,1,.533.844l-1.029.707,1.593-.92a.5.5,0,0,1,.534.845l-.373.256a.5.5,0,0,1,.455.876l-1.45,1.082.9-.519a.5.5,0,0,1,.565.82l-.986.8.421-.243a.5.5,0,0,1,.672.7l-1.061,1.669.389-.224a.5.5,0,0,1,.5.865L49.066,35.4a.5.5,0,0,1-.671-.7l1.06-1.67L45.348,35.4a.5.5,0,0,1-.566-.82l.987-.8L42.959,35.4a.5.5,0,0,1-.549-.833l1.445-1.079L40.543,35.4a.5.5,0,0,1-.533-.844l.263-.182L38.495,35.4A.5.5,0,0,1,38.245,35.47Z" fill="#e3c84c"/><path d="M14.744,22.47a.5.5,0,0,1-.322-.882l2.553-2.152-4.406,2.542a.5.5,0,0,1-.553-.831l3.7-2.831-1.342.775a.5.5,0,0,1-.557-.827l1.3-1.008a.5.5,0,0,1-.21-.78l1.4-1.739,0-.006a.5.5,0,0,1,.183-.683l.783-.451a.5.5,0,0,1,.639.747l-.542.672L19.821,13.6a.5.5,0,0,1,.557.827l-.226.176,1.739-1a.5.5,0,0,1,.553.83l-3.7,2.832,2.611-1.507a.5.5,0,0,1,.572.814l-2.553,2.154.2-.118a.493.493,0,0,1,.629.106.5.5,0,0,1,.013.637L18.7,21.255l.01.015a.5.5,0,0,1-.184.683l-.781.45a.5.5,0,0,1-.642-.744l.7-.879L14.994,22.4A.493.493,0,0,1,14.744,22.47Z" fill="#847638"/><path d="M25.022,22.47a.5.5,0,0,1-.291-.907l.564-.4-.335.194a.5.5,0,0,1-.575-.813l3.947-3.382-1.174.677a.5.5,0,0,1-.645-.738l1.806-2.337-.018-.03a.5.5,0,0,1,.183-.683l.783-.451a.5.5,0,0,1,.645.739L28.856,15.7,32.5,13.6a.5.5,0,0,1,.575.812l-3.945,3.381,4.611-2.662a.5.5,0,0,1,.541.84l-1.424,1.016a.5.5,0,0,1,.317.822l-2.37,2.766a.5.5,0,0,1,.033.884L29.2,22.4a.5.5,0,0,1-.63-.757l1.944-2.269L25.272,22.4A.493.493,0,0,1,25.022,22.47Z" fill="#847638"/><path d="M37.751,22.47a.5.5,0,0,1-.307-.9l2.395-1.854L36.932,21.4a.5.5,0,0,1-.577-.811l4.024-3.467-1.209.7a.5.5,0,0,1-.646-.738l1.8-2.318a.282.282,0,0,1-.018-.029.5.5,0,0,1,.183-.683l.783-.451a.5.5,0,0,1,.645.739l-1.04,1.344L44.479,13.6a.5.5,0,0,1,.577.811l-4.024,3.467,4.682-2.7a.5.5,0,0,1,.557.828l-2.393,1.852.259-.148a.5.5,0,0,1,.649.733l-2.1,2.788c.009.013.019.028.028.043a.5.5,0,0,1-.184.683l-.781.45a.5.5,0,0,1-.649-.734L42.509,19.8,38,22.4A.493.493,0,0,1,37.751,22.47Z" fill="#847638"/><path d="M13.314,35.47a.5.5,0,0,1-.3-.9l2.534-1.923-2.38,1.374a.5.5,0,0,1-.575-.812l3.554-3.043-.89.514a.5.5,0,0,1-.645-.741l1.7-2.184-.015-.025a.5.5,0,0,1,.183-.683l.783-.451a.5.5,0,0,1,.644.741l-.932,1.193,3.35-1.933a.5.5,0,0,1,.575.812l-3.553,3.043,4.6-2.654a.5.5,0,0,1,.552.831l-2.536,1.924.419-.241a.5.5,0,0,1,.632.109.5.5,0,0,1,0,.641L18.77,33.782a.507.507,0,0,1,.147.161.5.5,0,0,1-.183.683l-1.345.776a.5.5,0,0,1-.636-.751l1.724-2.085L13.564,35.4A.493.493,0,0,1,13.314,35.47Z" fill="#847638"/><path d="M27.055,35.47a.5.5,0,0,1-.332-.874l2.927-2.6-5.031,2.9a.5.5,0,0,1-.544-.836l2.5-1.815-.466.269a.5.5,0,0,1-.554-.829l1.422-1.1a.5.5,0,0,1-.26-.158A.5.5,0,0,1,26.7,29.8l1.611-2.047-.011-.019a.5.5,0,0,1,.183-.683l.783-.451a.5.5,0,0,1,.642.743L29.1,28.374,32.172,26.6a.5.5,0,0,1,.555.829l-.593.457L34.361,26.6a.5.5,0,0,1,.544.837l-2.493,1.81.991-.572a.5.5,0,0,1,.582.806l-2.928,2.6.347-.2a.5.5,0,0,1,.635.752l-1.307,1.572.01.017a.5.5,0,0,1-.182.682l-.862.5a.5.5,0,0,1-.635-.752l.42-.5L27.305,35.4A.49.49,0,0,1,27.055,35.47Z" fill="#847638"/><path d="M37.483,35.47a.5.5,0,0,1-.293-.906l.212-.153-.749.433a.5.5,0,0,1-.541-.839l2.014-1.442-.072.041a.5.5,0,0,1-.577-.811l2.083-1.8a.5.5,0,0,1-.469-.17.5.5,0,0,1,0-.64l1.208-1.46a.5.5,0,0,1,.188-.674l.783-.451a.5.5,0,0,1,.634.752l-.271.329L43.5,26.6a.5.5,0,0,1,.577.81L42.119,29.1l4.339-2.5a.5.5,0,0,1,.541.839l-2.007,1.438.445-.257a.5.5,0,0,1,.542.838l-1.325.956a.5.5,0,0,1,.2.868l-1.391,1.178a.492.492,0,0,1,.242.212.5.5,0,0,1-.183.683L39.976,35.4a.5.5,0,0,1-.574-.814l.554-.468L37.733,35.4A.493.493,0,0,1,37.483,35.47Z" fill="#847638"/><path d="M4.386,50.484c6.328.281,12.682.355,19.043.339-.481,2.093-2.653,3.164-4.6,3.689-2.5.086-4.957,3.616-2.059,4.9,8.6.428,17.541-.2,26.231.039,2.648-.612,1.5-3.735-.531-4.6-2.357-.508-5.342-1.364-5.793-4.152,6.835-.16,13.7-.094,20.488-.274,4.194-.553,1.906-11.574,2.4-14.991V6.55C60.077,1.261,59.1-.122,53.625.516H11.341C.533-.366-.589.65.431,11.736V41.493C.431,45.7-.852,50.252,4.386,50.484ZM42.7,58.55H23.453c-2.6.139-9.214,1.479-4.422-2.974,5.883-.388,11.84.013,17.771-.126C39.5,55.623,42.9,54.159,42.7,58.55Zm-4.428-4.14c-5.614.257-10.935.182-16.533.06a5.685,5.685,0,0,0,2.624-3.648c3.712-.014,7.426-.059,11.139-.111A5.629,5.629,0,0,0,38.267,54.41ZM57,49.516H24.284a.407.407,0,0,0-.449,0H13.68c-4.095.11-12.6,1.932-12.288-4.06H58.648C58.648,47.3,58.339,49.1,57,49.516ZM1.569,3.289C2.707-.334,13.091,1.484,16.029,1.484H43.79c2.936,0,13.38-1.864,14.641,1.86.534,13.673-.559,27.42.2,41.2H1.342C2.008,30.791,1.164,16.961,1.569,3.289Z" fill="#262626"/><path d="M4.549,39.922c-.03.189.033.527.19.6,1.543,2.432,8.626,1.1,10.985,1.077q14.138-.009,28.279,0c2.381.016,4.767-.006,7.151,0,.911,0,2.9.371,3.712-.345.861-.755.584-2.357.585-3.349q0-5.276,0-10.551c-.292-6.978.5-14.191,0-21.114-.793-3.08-5.555-1.831-8.139-1.831H11.137c-1.365,0-3.712-.463-5.033,0C2.779,5.57,4.549,15.014,4.549,17.688Zm8.17-29.381c.257-.211,1-.068,1.3-.068,1.97-.416,1.294,1.6,1.4,2.811-.947-.076-1.919-.135-2.836-.119C12.682,12.327,12.364,11.305,12.719,10.541ZM37.6,14.524c.822,0,1.66-.022,2.505-.051q-2.189,3.5-4.376,7c-1.633,0-3.249-.006-4.889.032L35.2,14.524Zm7.09-3.959c3.27-.294,2.785.005,2.79,2.9H44.522C44.642,12.539,44.265,11.393,44.688,10.565Zm5.3,10.911h-7.1q2.169-3.471,4.339-6.942A3.929,3.929,0,0,0,48,14.5c1.171.2,1.753-.371,2.474.9C50.863,16.064,50.826,20.954,49.99,21.476Zm-.138,12.93c-2.011.071-4.081-.132-6.069.059-.306,0-.612.01-.918.016Q45.04,31,47.217,27.517c1.087.2,2.621-.306,3.331.592C51.1,28.842,50.852,33.821,49.852,34.406ZM44.45,35.6h3.1v4.8h-3.1Zm-25.724-.9,4.444-7.11h4.852c-1.463,2.4-3.041,4.749-4.445,7.175Q21.147,34.763,18.726,34.7Zm-2.384-.059c-.914-.586-2.332-.084-3.417-.242l4.255-6.809h4.908L17.66,34.678C17.221,34.665,16.781,34.661,16.342,34.645Zm6.573-12.121H43.457v3.882c-9.007-.1-17.94.2-26.951-.125V22.638C18.653,22.605,20.8,22.524,22.915,22.524Zm6.32,5.07h4.749L29.52,34.736q-2.388.035-4.771.037Zm6.039,0c1.579,0,3.13.018,4.717-.039q-2.211,3.535-4.421,7.073-2.374.051-4.751.093Zm6.071-.085c.754-.028,1.51-.053,2.267-.071a15.02,15.02,0,0,0,2.525.079q-2.182,3.491-4.364,6.983-2.427.046-4.86.1Zm6.112-1.1H44.543V22.524h2.914Zm-3.912-12.04c.677.416,1.752.051,2.559.168l-4.338,6.942H36.929q2.2-3.523,4.4-7.046C42.069,14.4,42.807,14.381,43.545,14.366ZM29.76,21.535c-1.665.041-3.34.094-5.02.143l4.471-7.154h4.931Zm-6.117.173c-1.654.044-3.307.069-4.955.062l4.529-7.246h4.916Q25.889,18.117,23.643,21.708Zm-6.041.057c-.373,0-.744-.02-1.116-.03-.8-.7-2.406-.1-3.473-.288l4.326-6.923h4.789ZM11.622,14.4a39.808,39.808,0,0,0,4.383.121Q13.831,18,11.657,21.482c-2.887.97-2.424-3.945-2.128-5.525A1.8,1.8,0,0,1,11.622,14.4Zm3.872,8.24V26.19c-.995-.089-2.026-.158-2.988-.148V22.584Q13.994,22.649,15.494,22.643Zm-3.825,4.841c1.428.177,2.947.073,4.408.11l-4.263,6.821c-2.837-.073-3.038-2.277-2.362-5.162A1.994,1.994,0,0,1,11.669,27.484Zm3.883,8.266V40.4h-3.1V35.68C13.474,35.736,14.511,35.755,15.552,35.75Zm5.712,4.655c-.62,0-2.529.16-4.816.292V35.739c9.058-.266,18.052-.1,27.1-.145v4.811ZM5.451,6.236c1.238-1.8,8.154-.641,10.341-.641H47.866c1.285,0,4.661-.642,5.814,0,2.315,1.289.869,10.466.869,13.055-.244,6.674.434,13.52,0,20.152-.284,1.518-.035,1.249-1.418,1.6a15.66,15.66,0,0,1-4.682.138V35.594c3.931,1.037,3.748-5.5,2.976-7.735-.588-1.463-1.616-1.52-2.883-1.48V22.524c3.747.844,3.832-5.37,2.986-7.621-.583-1.483-1.684-1.532-3-1.474.007-2.189.494-4.288-2.495-3.963-2.693-.455-2.715,2.048-2.561,4.01-8.973-.078-17.907.157-26.882-.1.076-2.269.359-4.184-2.607-3.853-2.631-.24-2.732,1.6-2.571,3.714-3.226.148-3.184,2.7-2.938,5.456-.107,2.94.246,3.786,3.023,3.844V26.1c-3.692-.2-3.665,5.023-2.946,7.6.482,1.945,1.3,1.773,3,1.92v5.253c-3.021.013-5.662-.222-6.1-1.079V13.837C5.451,12.368,4.6,7.478,5.451,6.236Z" fill="#262626"/></svg>
